<svg width="26" height="26" viewBox="0 0 26 26" fill="none" xmlns="http://www.w3.org/2000/svg">
<path d="M8.50731 6.27287C9.54833 6.2424 10.4116 6.59787 11.28 6.92287C11.6659 7.07013 12.0518 7.2174 12.453 7.32404C12.7679 7.41037 13.0725 7.36974 13.3722 7.25802C13.8901 7.07013 14.403 6.88224 14.921 6.68927C15.8249 6.35412 16.7542 6.1256 17.719 6.18654C19.5218 6.29826 21.0503 6.99904 22.2132 8.41584C22.4163 8.65959 22.4011 8.68498 22.1472 8.86271C20.2632 10.1881 19.4405 12.0111 19.6944 14.2912C19.9179 16.3174 20.9893 17.7697 22.7972 18.6889C23.0307 18.8057 23.0765 18.9123 22.9901 19.151C22.3858 20.8014 21.5327 22.3096 20.4155 23.6654C20.0804 24.0717 19.7401 24.4678 19.344 24.808C18.4554 25.5647 17.4499 25.7322 16.3276 25.4377C15.7538 25.2854 15.2206 25.0264 14.6569 24.8385C13.5702 24.483 12.4987 24.549 11.4222 24.8944C10.8585 25.0772 10.3253 25.326 9.75145 25.4834C8.63426 25.7932 7.68973 25.519 6.85692 24.7369C5.4452 23.4166 4.39911 21.8373 3.61708 20.0854C3.04325 18.8158 2.63192 17.4752 2.40848 16.0838C2.12919 14.3623 2.10887 12.651 2.637 10.9701C3.06356 9.59396 3.79989 8.41584 4.94247 7.52716C6.00887 6.69943 7.22255 6.25256 8.50731 6.27287Z" fill="#383838"/>
<path d="M12.5902 5.35808C12.641 3.74831 13.3417 2.45847 14.5351 1.41237C15.3984 0.655733 16.4089 0.219014 17.5261 0.0108112C17.6988 -0.0196576 17.7699 0.00573304 17.775 0.198702C17.7902 2.10808 17.0843 3.6823 15.6269 4.92136C14.8398 5.59167 13.941 5.92175 12.9101 5.93191C12.6562 5.93698 12.5496 5.86589 12.5851 5.60691C12.6003 5.53073 12.5902 5.44441 12.5902 5.35808Z" fill="#383838"/>
</svg>
