<svg width="25" height="19" viewBox="0 0 25 19" fill="none" xmlns="http://www.w3.org/2000/svg">
<path fill-rule="evenodd" clip-rule="evenodd" d="M16.9029 16.4361L18.2611 18.0531C22.7885 17.9884 24.5348 14.9486 24.5348 14.9486C24.5348 8.22221 21.5596 2.85405 21.5596 2.85405C18.5198 0.719727 15.7387 0.719727 15.7387 0.719727L15.4154 0.978433C18.8432 1.88391 21.0422 3.63017 20.9775 3.69485C17.4203 0.978433 8.3656 0.719727 3.96759 3.69485C3.96759 3.69485 5.58451 2.01326 9.33575 0.978433L9.14172 0.719727C9.14172 0.719727 6.36063 0.719727 3.32083 2.85405C3.32083 2.85405 0.345703 8.22221 0.345703 14.9486C0.345703 14.9486 2.09197 17.9884 6.61933 18.0531L8.1069 16.4361C5.39048 15.5953 4.48501 13.9138 4.48501 13.9138C8.04222 17.2123 17.2263 17.0829 20.5895 13.9138C20.5895 13.9138 19.5547 15.7247 16.9029 16.4361ZM16.0625 13.0083C17.2413 13.0083 18.1969 11.9948 18.1969 10.7446C18.1969 9.4944 17.2413 8.48092 16.0625 8.48092C14.8838 8.48092 13.9282 9.4944 13.9282 10.7446C13.9282 11.9948 14.8838 13.0083 16.0625 13.0083ZM8.55985 13.0083C9.73861 13.0083 10.6942 11.9948 10.6942 10.7446C10.6942 9.4944 9.73861 8.48092 8.55985 8.48092C7.38109 8.48092 6.42552 9.4944 6.42552 10.7446C6.42552 11.9948 7.38109 13.0083 8.55985 13.0083Z" fill="#383838"/>
</svg>
