<svg width="14" height="25" viewBox="0 0 14 25" fill="none" xmlns="http://www.w3.org/2000/svg">
<path d="M10.7331 5.25313H13.3997C13.6941 5.25313 13.9331 5.01419 13.9331 4.71979V1.12673C13.9331 0.847258 13.7181 0.614725 13.4397 0.594992C12.5912 0.534725 10.9336 0.453125 9.74161 0.453125C6.46641 0.453125 4.33307 2.41579 4.33307 5.98273V9.51979H0.59974C0.30534 9.51979 0.0664062 9.75873 0.0664062 10.0531V13.7865C0.0664062 14.0809 0.30534 14.3198 0.59974 14.3198H4.33307V24.4531C4.33307 24.7475 4.57201 24.9865 4.86641 24.9865H8.59974C8.89414 24.9865 9.13307 24.7475 9.13307 24.4531V14.3198H12.9848C13.2568 14.3198 13.4851 14.1155 13.5149 13.8451L13.9299 10.1118C13.9651 9.79606 13.7176 9.51979 13.3997 9.51979H9.13307V6.85313C9.13307 5.96939 9.84934 5.25313 10.7331 5.25313Z" fill="#383838"/>
</svg>
