<svg width="27" height="27" viewBox="0 0 27 27" fill="none" xmlns="http://www.w3.org/2000/svg">
<g clip-path="url(#clip0_304_13209)">
<path d="M2.22426 2.41215C1.98086 2.79065 1.83481 3.24011 1.78613 3.76054V25.1219C1.83481 25.6424 1.98086 26.0918 2.22426 26.4703L14.5648 14.4057" fill="#2FCFFF"/>
<path d="M14.5648 14.4057L18.8 18.5219L23.6194 15.8251C25.3232 14.9261 25.3232 14.0036 23.6194 13.0573L18.8 10.3605" fill="#FDCC00"/>
<path d="M2.22408 26.4712C3.00297 26.8024 3.70884 26.8024 4.34169 26.4712L18.8 18.5219L14.5648 14.4057" fill="#F0304B"/>
<path d="M2.22426 2.41215L14.5648 14.4057L18.8 10.3605L4.34169 2.41275C3.5628 2.08157 2.85711 2.08097 2.22426 2.41215Z" fill="#43E475"/>
</g>
<defs>
<clipPath id="clip0_304_13209">
<rect width="26" height="26" fill="white" transform="translate(0.702637 0.719727)"/>
</clipPath>
</defs>
</svg>
