<svg width="24" height="25" viewBox="0 0 24 25" fill="none" xmlns="http://www.w3.org/2000/svg">
<path d="M12 16.4234C14.0456 16.4234 15.7038 14.7652 15.7038 12.7197C15.7038 10.6742 14.0456 9.01603 12 9.01603C9.95443 9.01603 8.29622 10.6742 8.29622 12.7197C8.29622 14.7652 9.95443 16.4234 12 16.4234Z" fill="#383838"/>
<path fill-rule="evenodd" clip-rule="evenodd" d="M6.66667 0.719727C2.98477 0.719727 0 3.7045 0 7.38639V18.0531C0 21.735 2.98477 24.7197 6.66667 24.7197H17.3333C21.0152 24.7197 24 21.735 24 18.0531V7.38639C24 3.7045 21.0152 0.719727 17.3333 0.719727H6.66667ZM20 4.71973C20 5.45612 19.403 6.05306 18.6667 6.05306C17.9303 6.05306 17.3333 5.45612 17.3333 4.71973C17.3333 3.98334 17.9303 3.38639 18.6667 3.38639C19.403 3.38639 20 3.98334 20 4.71973ZM12 19.3864C15.6816 19.3864 18.6667 16.4016 18.6667 12.7197C18.6667 9.03782 15.6816 6.05306 12 6.05306C8.31836 6.05306 5.33333 9.03782 5.33333 12.7197C5.33333 16.4016 8.31836 19.3864 12 19.3864Z" fill="#383838"/>
</svg>
