<svg width="27" height="28" viewBox="0 0 27 28" fill="none" xmlns="http://www.w3.org/2000/svg">
<path fill-rule="evenodd" clip-rule="evenodd" d="M13.3457 2C19.9732 2 25.3457 7.37252 25.3457 14C25.3457 20.6275 19.9732 26 13.3457 26C6.71823 26 1.3457 20.6275 1.3457 14C1.3457 7.37252 6.71823 2 13.3457 2ZM9.82085 9.471C12.3223 9.471 14.3499 11.499 14.3499 14C14.3499 16.501 12.3223 18.529 9.82085 18.529C7.31987 18.529 5.29232 16.501 5.29232 14C5.29232 11.499 7.31987 9.471 9.82085 9.471ZM17.0673 9.82888C18.3331 9.82888 19.3589 11.6963 19.3589 14C19.3589 16.3037 18.3331 18.1711 17.0673 18.1711C15.8016 18.1711 14.7758 16.3037 14.7758 14C14.7758 11.6963 15.8016 9.82888 17.0673 9.82888ZM20.6011 10.1863C21.0417 10.1863 21.3991 11.8935 21.3991 14C21.3991 16.1065 21.0417 17.8137 20.6011 17.8137C20.1601 17.8137 19.8027 16.1065 19.8027 14C19.8027 11.8935 20.1601 10.1863 20.6011 10.1863Z" fill="#383838"/>
</svg>
