<svg width="25" height="20" viewBox="0 0 25 20" fill="none" xmlns="http://www.w3.org/2000/svg">
<path d="M22.0775 0.447052C22.0775 0.447052 24.236 -0.394615 24.0561 1.64944C23.9961 2.49111 23.4565 5.43695 23.0368 8.62328L21.5978 18.062C21.5978 18.062 21.4779 19.4447 20.3986 19.6852C19.3193 19.9257 17.7005 18.8436 17.4007 18.6031C17.1608 18.4227 12.9038 15.7173 11.4048 14.3947C10.9851 14.034 10.5055 13.3126 11.4648 12.4709L17.7605 6.459C18.48 5.73756 19.1995 4.05422 16.2015 6.09828L7.80734 11.8096C7.80734 11.8096 6.84801 12.4108 5.04929 11.8697L1.15197 10.6673C1.15197 10.6673 -0.28704 9.76556 2.17126 8.86372C8.16712 6.03811 15.542 3.15239 22.0775 0.447052Z" fill="#383838"/>
</svg>
