<svg width="28" height="23" viewBox="0 0 28 23" fill="none" xmlns="http://www.w3.org/2000/svg">
<path d="M27.3665 2.95365C26.3811 3.39115 25.3248 3.6849 24.2144 3.81823C25.3478 3.13906 26.2186 2.06406 26.6269 0.784896C25.5686 1.41198 24.3915 1.86823 23.1436 2.11406C22.1436 1.0474 20.7186 0.382812 19.1415 0.382812C16.1123 0.382812 13.6561 2.83698 13.6561 5.86615C13.6561 6.29531 13.7061 6.71406 13.7998 7.11615C9.2415 6.88698 5.20192 4.70365 2.49567 1.3849C2.02275 2.1974 1.754 3.13906 1.754 4.14323C1.754 6.04531 2.72067 7.72448 4.19359 8.7099C3.29359 8.68073 2.44775 8.43281 1.70817 8.0224C1.70817 8.04531 1.70817 8.06823 1.70817 8.09115C1.70817 10.7495 3.59984 12.9641 6.10609 13.4703C5.64775 13.5953 5.16234 13.662 4.66234 13.662C4.30817 13.662 3.96442 13.6286 3.629 13.562C4.329 15.7391 6.354 17.3286 8.75192 17.3724C6.87692 18.8432 4.51234 19.7182 1.9415 19.7182C1.49775 19.7182 1.06234 19.6932 0.635254 19.6411C3.06025 21.1995 5.94359 22.1057 9.0415 22.1057C19.129 22.1057 24.6457 13.7495 24.6457 6.50365C24.6457 6.26615 24.6394 6.02656 24.6311 5.79323C25.7019 5.02031 26.6311 4.05365 27.3665 2.95365Z" fill="#383838"/>
</svg>
