<svg width="36" height="36" viewBox="0 0 36 36" fill="none" xmlns="http://www.w3.org/2000/svg">
<path d="M11.7795 8.68551C13.2209 8.64332 14.4163 9.13551 15.6186 9.58551C16.153 9.78941 16.6874 9.99332 17.2428 10.141C17.6788 10.2605 18.1006 10.2043 18.5155 10.0496C19.2327 9.78941 19.9428 9.52926 20.66 9.26207C21.9116 8.79801 23.1983 8.4816 24.5342 8.56598C27.0303 8.72066 29.1467 9.69098 30.7569 11.6527C31.0381 11.9902 31.017 12.0254 30.6655 12.2714C28.0569 14.1066 26.9178 16.6308 27.2694 19.7879C27.5788 22.5933 29.0624 24.6043 31.5655 25.8769C31.8889 26.0386 31.9522 26.1863 31.8327 26.5168C30.9959 28.8019 29.8147 30.8902 28.2678 32.7675C27.8038 33.33 27.3327 33.8785 26.7842 34.3496C25.5538 35.3972 24.1616 35.6293 22.6077 35.2214C21.8131 35.0105 21.0749 34.6519 20.2944 34.3918C18.7897 33.8996 17.3061 33.991 15.8155 34.4691C15.035 34.7222 14.2967 35.0668 13.5022 35.2847C11.9553 35.7136 10.6475 35.3339 9.49439 34.2511C7.5397 32.423 6.09126 30.2363 5.00845 27.8105C4.21392 26.0527 3.64439 24.1964 3.33501 22.2699C2.94829 19.8863 2.92017 17.5168 3.65142 15.1894C4.24204 13.2839 5.26157 11.6527 6.8436 10.4222C8.32017 9.27613 10.0006 8.65738 11.7795 8.68551Z" fill="#383838"/>
<path d="M17.4328 7.41888C17.5031 5.18997 18.4734 3.40403 20.1257 1.95559C21.321 0.907938 22.7203 0.303251 24.2671 0.0149693C24.5062 -0.0272182 24.6046 0.00793806 24.6117 0.275126C24.6328 2.91888 23.6554 5.09856 21.6374 6.81419C20.5476 7.74231 19.3031 8.19934 17.8757 8.21341C17.5242 8.22044 17.3765 8.122 17.4257 7.76341C17.4468 7.65794 17.4328 7.53841 17.4328 7.41888Z" fill="#383838"/>
</svg>
