<svg width="24" height="23" viewBox="0 0 24 23" fill="none" xmlns="http://www.w3.org/2000/svg">
<path d="M1.3934 0.893441C1.97918 0.307655 2.92893 0.307655 3.51472 0.893441L22.6066 19.9853C23.1924 20.5711 23.1924 21.5209 22.6066 22.1066C22.0208 22.6924 21.0711 22.6924 20.4853 22.1066L1.3934 3.01476C0.80761 2.42898 0.807609 1.47923 1.3934 0.893441Z" fill="#383838"/>
<path d="M22.6066 0.893442C23.1924 1.47923 23.1924 2.42898 22.6066 3.01476L3.51472 22.1066C2.92893 22.6924 1.97918 22.6924 1.3934 22.1066C0.807609 21.5209 0.80761 20.5711 1.3934 19.9853L20.4853 0.893442C21.0711 0.307656 22.0208 0.307655 22.6066 0.893442Z" fill="#383838"/>
</svg>
