<svg width="24" height="24" viewBox="0 0 24 24" fill="none" xmlns="http://www.w3.org/2000/svg">
<path fill-rule="evenodd" clip-rule="evenodd" d="M6.9999 3.85039C4.16912 3.85039 1.8499 6.18832 1.8499 9.10268C1.8499 10.6672 2.51933 12.0682 3.58001 13.0298L11.9093 20.1162C11.9092 20.1162 11.9093 20.1163 11.9093 20.1162C11.9629 20.1616 12.0366 20.1617 12.0902 20.1165C12.0901 20.1165 12.0903 20.1164 12.0902 20.1165L20.4198 13.0297C21.4805 12.0682 22.1499 10.6672 22.1499 9.10268C22.1499 6.18832 19.8307 3.85039 16.9999 3.85039C15.2159 3.85039 13.6383 4.77556 12.7114 6.19343C12.5544 6.43358 12.2868 6.57832 11.9999 6.57832C11.713 6.57832 11.4454 6.43358 11.2884 6.19343C10.3615 4.77556 8.7839 3.85039 6.9999 3.85039ZM0.149902 9.10268C0.149902 5.27664 3.20326 2.15039 6.9999 2.15039C8.97577 2.15039 10.7525 2.99942 11.9999 4.35069C13.2473 2.99942 15.024 2.15039 16.9999 2.15039C20.7965 2.15039 23.8499 5.27664 23.8499 9.10268C23.8499 11.1675 22.9617 13.0259 21.5498 14.2999C21.5437 14.3054 21.5375 14.3108 21.5312 14.3162L13.1897 21.4131C12.5017 21.9962 11.4981 21.9962 10.8101 21.4131L2.46861 14.3162C2.46231 14.3108 2.4561 14.3054 2.44996 14.2999C1.03813 13.0259 0.149902 11.1675 0.149902 9.10268Z" fill="#383838"/>
</svg>
