<svg width="150" height="26" viewBox="0 0 150 26" fill="none" xmlns="http://www.w3.org/2000/svg">
<path d="M31.7773 18.4432H34.5066V15.4736H43.656V13.3005H34.5066V11.6554H43.8916V9.3457H31.7773V18.4432Z" fill="#383838"/>
<path d="M56.3785 9.67058C54.9982 9.28686 53.5682 9.11208 52.1362 9.15207C50.7041 9.11208 49.2741 9.28686 47.8938 9.67058C46.9378 9.92836 46.0829 10.4709 45.4427 11.2261C44.9031 12.0168 44.623 12.9559 44.6413 13.9129C44.606 14.8653 44.8697 15.8049 45.3955 16.5998C46.0189 17.3742 46.8805 17.921 47.8467 18.1553C49.227 18.539 50.657 18.7138 52.089 18.6738C53.5211 18.7138 54.9511 18.539 56.3314 18.1553C57.2874 17.8975 58.1423 17.355 58.7825 16.5998C59.3283 15.812 59.6089 14.8709 59.5839 13.9129C59.6249 12.9529 59.3427 12.0068 58.7825 11.2261C58.1689 10.4631 57.326 9.91772 56.3785 9.67058ZM56.5671 14.9971C56.3914 15.3143 56.13 15.5756 55.8129 15.7513C55.3573 15.9846 54.8613 16.1286 54.3516 16.1755C53.6011 16.2696 52.8454 16.3168 52.089 16.317C51.1252 16.3322 50.1622 16.2533 49.2137 16.0813C48.6606 15.9861 48.1504 15.7227 47.7524 15.3271C47.4303 14.9299 47.2779 14.4218 47.3282 13.9129C47.301 13.4066 47.451 12.9066 47.7524 12.4988C48.1379 12.0864 48.6541 11.8199 49.2137 11.7446C50.1619 11.5707 51.1251 11.4917 52.089 11.5089C52.8454 11.5091 53.6011 11.5563 54.3516 11.6504C54.8613 11.6972 55.3573 11.8412 55.8129 12.0746C56.14 12.2367 56.405 12.5016 56.5671 12.8288C56.7174 13.1873 56.7974 13.5714 56.8028 13.9601C56.8152 14.3203 56.734 14.6776 56.5671 14.9971Z" fill="#383838"/>
<path d="M72.1226 15.1868C72.5761 14.9746 72.9543 14.6293 73.2068 14.1969C73.4916 13.6959 73.6228 13.1222 73.5839 12.5471C73.5858 12.031 73.4898 11.5191 73.301 11.0387C73.1179 10.6488 72.8429 10.3092 72.4997 10.0489C72.1274 9.8006 71.7116 9.6247 71.2741 9.53035C70.7623 9.42117 70.2417 9.35807 69.7186 9.3418H60.6211V18.4393H63.3079V15.7996H66.7489L70.0014 18.4393H73.3953L70.4257 16.0824L69.7186 15.6582H70.3314C70.9543 15.6245 71.5638 15.4641 72.1226 15.1868ZM69.53 13.7727H63.4022V11.6515H69.53C69.8772 11.6161 70.226 11.6992 70.5199 11.8872C70.6336 11.9942 70.719 12.1277 70.7684 12.2758C70.8177 12.4239 70.8295 12.5819 70.8028 12.7357C70.8177 12.8819 70.8001 13.0295 70.7512 13.1681C70.7023 13.3066 70.6233 13.4326 70.5199 13.537C70.2173 13.7035 69.8752 13.7849 69.53 13.7727Z" fill="#383838"/>
<path d="M83.5344 16.1806L78.1136 9.3457H74.814V18.4432H77.5008V12.551L82.1203 18.4432H84.8495L89.4737 12.551V18.4432H92.1558V9.3457H88.9552L83.5344 16.1806Z" fill="#383838"/>
<path d="M101.394 9.3418H98.6134L92.7212 18.4393H95.9737L97.0578 16.6952H103.751L104.835 18.4393H108.135L102.196 9.3418H101.394ZM98.2363 14.8097L100.405 11.331L102.573 14.8192L98.2363 14.8097Z" fill="#383838"/>
<path d="M129.818 9.3418H127.037L121.145 18.4393H124.397L125.482 16.6481H132.175L133.259 18.4393H136.559L130.667 9.3418H129.818ZM126.66 14.8097L128.828 11.3216L130.997 14.8097H126.66Z" fill="#383838"/>
<path d="M146.222 15.6582H146.788C147.388 15.6121 147.977 15.4689 148.532 15.234C148.999 15.0183 149.38 14.6534 149.616 14.1969C149.901 13.6959 150.032 13.1222 149.993 12.5471C149.995 12.031 149.899 11.5191 149.71 11.0387C149.529 10.6608 149.273 10.3239 148.956 10.0489C148.584 9.8006 148.168 9.6247 147.731 9.53035C147.219 9.42117 146.698 9.35807 146.175 9.3418H137.078V18.4393H139.764V15.7996H143.205L146.458 18.4393H149.852L146.882 16.0824L146.222 15.6582ZM139.812 13.7727V11.6987H145.939C146.287 11.6633 146.635 11.7463 146.929 11.9344C147.043 12.0413 147.128 12.1748 147.178 12.3229C147.227 12.471 147.239 12.629 147.212 12.7828C147.227 12.929 147.21 13.0767 147.161 13.2152C147.112 13.3538 147.033 13.4798 146.929 13.5842C146.64 13.7828 146.287 13.8668 145.939 13.8198L139.812 13.7727Z" fill="#383838"/>
<path d="M107.475 13.7712C107.466 13.1582 107.578 12.5495 107.805 11.98C107.999 11.4253 108.323 10.9245 108.748 10.5187C109.173 10.1058 109.69 9.79894 110.256 9.62313C110.908 9.39912 111.594 9.28754 112.283 9.29317H120.579V11.65H112.566C112.245 11.6201 111.921 11.6547 111.613 11.7518C111.306 11.849 111.02 12.0067 110.775 12.2157C110.561 12.4312 110.396 12.6898 110.29 12.9744C110.184 13.2589 110.141 13.5627 110.162 13.8655C110.141 14.1683 110.184 14.4721 110.29 14.7566C110.396 15.0412 110.561 15.2998 110.775 15.5153C111.293 15.9322 111.951 16.1346 112.613 16.081H120.626V18.4378H112.283C111.593 18.4472 110.907 18.3355 110.256 18.1079C109.699 17.9131 109.186 17.6085 108.748 17.2122C108.323 16.8065 107.999 16.3057 107.805 15.751C107.6 15.1753 107.489 14.5706 107.475 13.9598V13.7712Z" fill="#383838"/>
<path d="M18.7629 12.5053C15.8404 18.916 12.3994 21.7914 11.8809 21.8385C11.3623 21.8856 7.21426 18.0204 4.57457 11.6568C7.02915 11.1859 9.52292 10.9491 12.0223 10.9498C13.3455 10.955 14.6673 11.0337 15.9818 11.1855C16.3668 10.2033 16.6818 9.19523 16.9246 8.16867C15.2747 7.98012 13.6721 7.88584 12.0223 7.8387C9.23939 7.83029 6.46184 8.0828 3.7261 8.5929C3.31098 7.30216 3.01126 5.97711 2.83049 4.63337C5.77008 3.97331 8.7738 3.64131 11.7866 3.64348C13.8354 3.62815 15.8829 3.75414 17.9144 4.02058C18.0941 3.03968 18.2044 2.04734 18.2444 1.05093C16.1476 0.807899 14.0388 0.682004 11.928 0.673828C7.30854 0.673828 3.06617 1.38089 0.237934 2.46505L0.00224743 2.55932C-0.186302 15.9935 11.5509 24.9496 11.8809 25.3267C12.258 24.9496 23.8066 16.2292 23.8066 2.51218L23.7595 2.46505C23.7123 2.46505 23.5709 2.37077 23.2881 2.2765C22.6282 2.04081 21.9683 1.85226 21.2612 1.66371C21.2612 1.66371 21.0255 4.72764 20.7427 6.28317C20.3045 8.42134 19.6408 10.507 18.7629 12.5053Z" fill="#383838"/>
</svg>
