<svg width="25" height="24" viewBox="0 0 25 24" fill="none" xmlns="http://www.w3.org/2000/svg">
<path d="M20.5999 10.3472C20.5999 16.1323 12.4999 21.091 12.4999 21.091C12.4999 21.091 4.3999 16.1323 4.3999 10.3472C4.3999 8.37451 5.25329 6.48262 6.77234 5.08772C8.29138 3.69283 10.3516 2.90918 12.4999 2.90918C14.6482 2.90918 16.7084 3.69283 18.2275 5.08772C19.7465 6.48262 20.5999 8.37451 20.5999 10.3472Z" stroke="white" stroke-width="1.6" stroke-linecap="round" stroke-linejoin="round"/>
<path d="M12.4999 13.4547C14.1568 13.4547 15.4999 12.1115 15.4999 10.4547C15.4999 8.79782 14.1568 7.45468 12.4999 7.45468C10.843 7.45468 9.4999 8.79782 9.4999 10.4547C9.4999 12.1115 10.843 13.4547 12.4999 13.4547Z" stroke="white" stroke-width="1.6" stroke-linecap="round" stroke-linejoin="round"/>
</svg>
