<svg width="24" height="18" viewBox="0 0 24 18" fill="none" xmlns="http://www.w3.org/2000/svg">
<path d="M12 5.63961C11.132 5.63961 10.2996 5.99361 9.68583 6.62373C9.07208 7.25385 8.72727 8.10848 8.72727 8.99961C8.72727 9.89074 9.07208 10.7454 9.68583 11.3755C10.2996 12.0056 11.132 12.3596 12 12.3596C12.868 12.3596 13.7004 12.0056 14.3142 11.3755C14.9279 10.7454 15.2727 9.89074 15.2727 8.99961C15.2727 8.10848 14.9279 7.25385 14.3142 6.62373C13.7004 5.99361 12.868 5.63961 12 5.63961ZM12 14.5996C10.5534 14.5996 9.16598 14.0096 8.14305 12.9594C7.12013 11.9092 6.54545 10.4848 6.54545 8.99961C6.54545 7.5144 7.12013 6.09002 8.14305 5.03981C9.16598 3.98961 10.5534 3.39961 12 3.39961C13.4466 3.39961 14.834 3.98961 15.8569 5.03981C16.8799 6.09002 17.4545 7.5144 17.4545 8.99961C17.4545 10.4848 16.8799 11.9092 15.8569 12.9594C14.834 14.0096 13.4466 14.5996 12 14.5996V14.5996ZM12 0.599609C6.54545 0.599609 1.88727 4.08281 0 8.99961C1.88727 13.9164 6.54545 17.3996 12 17.3996C17.4545 17.3996 22.1127 13.9164 24 8.99961C22.1127 4.08281 17.4545 0.599609 12 0.599609Z" fill="#B4B4BF"/>
</svg>
