<svg width="26" height="26" viewBox="0 0 26 26" fill="none" xmlns="http://www.w3.org/2000/svg">
<g clip-path="url(#clip0_917_40)">
<path d="M1 1H25V25H1V1Z" fill="#DE2910"/>
<path d="M10.5999 5.92039L4.4799 9.88039L6.9999 3.40039L9.1599 9.88039L3.3999 5.92039H10.5999Z" fill="#FFDE00"/>
<path d="M12.0895 2.54896L14.2702 3.61701L11.9876 4.0092L13.4672 2.28073L13.3248 4.60477L12.0895 2.54896Z" fill="#FFDE00"/>
<path d="M14.8689 4.66574L16.4632 6.4994L14.2064 5.97213L16.2434 4.95496L15.2071 7.0418L14.8689 4.66574Z" fill="#FFDE00"/>
<path d="M15.3707 8.14996L16.0776 10.476L14.2318 9.07243L16.5078 8.97565L14.7088 10.4582L15.3707 8.14996Z" fill="#FFDE00"/>
<path d="M13.4692 10.6393L13.2238 13.0555L12.064 11.0503L14.1988 11.8387L11.9692 12.5113L13.4692 10.6393Z" fill="#FFDE00"/>
</g>
<rect x="0.5" y="0.5" width="25" height="25" rx="12.5" stroke="#B4B4BF"/>
<defs>
<clipPath id="clip0_917_40">
<rect x="1" y="1" width="24" height="24" rx="12" fill="white"/>
</clipPath>
</defs>
</svg>
