<svg width="26" height="26" viewBox="0 0 26 26" fill="none" xmlns="http://www.w3.org/2000/svg">
<g clip-path="url(#clip0_917_13451)">
<path d="M1 1H25V25H1V1Z" fill="#012169"/>
<path d="M25 1V4L16.0938 13L25 21.7656V25H21.8594L12.9062 16.1875L4.1875 25H1V21.8125L9.71875 13.0469L1 4.46875V1H3.90625L12.9062 9.8125L21.625 1H25Z" fill="white"/>
<path d="M9.625 16.1875L10.1406 17.7812L2.96875 25H1V24.8594L9.625 16.1875ZM15.4375 15.625L17.9688 16L25 22.8906V25L15.4375 15.625ZM25 1L16 10.1875L15.8125 8.125L22.8438 1H25ZM1 1.04688L10.0469 9.90625L7.28125 9.53125L1 3.29688V1.04688Z" fill="#C8102E"/>
<path d="M9.25 1V25H16.75V1H9.25ZM1 9.25V16.75H25V9.25H1Z" fill="white"/>
<path d="M1 10.75V15.25H25V10.75H1ZM10.75 1V25H15.25V1H10.75Z" fill="#C8102E"/>
</g>
<rect x="0.5" y="0.5" width="25" height="25" rx="12.5" stroke="#B4B4BF"/>
<defs>
<clipPath id="clip0_917_13451">
<rect x="1" y="1" width="24" height="24" rx="12" fill="white"/>
</clipPath>
</defs>
</svg>
