<svg width="26" height="26" viewBox="0 0 26 26" fill="none" xmlns="http://www.w3.org/2000/svg">
<g clip-path="url(#clip0_917_18977)">
<path d="M1 1H25V9.00156H1V1Z" fill="#FF9933"/>
<path d="M1 9.00195H25V16.9988H1V9.00195Z" fill="white"/>
<path d="M1 16.998H25V24.9996H1V16.998Z" fill="#128807"/>
<path d="M13 16.1988C14.7674 16.1988 16.2 14.7661 16.2 12.9988C16.2 11.2315 14.7674 9.79883 13 9.79883C11.2327 9.79883 9.80005 11.2315 9.80005 12.9988C9.80005 14.7661 11.2327 16.1988 13 16.1988Z" fill="#000088"/>
<path d="M13.0002 15.7992C14.5466 15.7992 15.8002 14.5456 15.8002 12.9992C15.8002 11.4528 14.5466 10.1992 13.0002 10.1992C11.4538 10.1992 10.2002 11.4528 10.2002 12.9992C10.2002 14.5456 11.4538 15.7992 13.0002 15.7992Z" fill="white"/>
<path d="M13.0002 13.5595C13.3095 13.5595 13.5602 13.3087 13.5602 12.9995C13.5602 12.6902 13.3095 12.4395 13.0002 12.4395C12.6909 12.4395 12.4402 12.6902 12.4402 12.9995C12.4402 13.3087 12.6909 13.5595 13.0002 13.5595Z" fill="#000088"/>
<path d="M15.7573 13.5075C15.8361 13.5178 15.9085 13.4623 15.9188 13.3835C15.9292 13.3046 15.8737 13.2323 15.7949 13.2219C15.716 13.2115 15.6437 13.267 15.6333 13.3459C15.6229 13.4247 15.6784 13.4971 15.7573 13.5075Z" fill="#000088"/>
<path d="M13.0001 15.7984L13.0961 14.1184L13.0001 13.3184L12.9041 14.1184L13.0001 15.7984Z" fill="#000088"/>
<path d="M15.5314 14.204C15.6048 14.2344 15.6891 14.1995 15.7195 14.1261C15.75 14.0526 15.7151 13.9684 15.6416 13.9379C15.5681 13.9075 15.4839 13.9424 15.4534 14.0159C15.423 14.0893 15.4579 14.1736 15.5314 14.204Z" fill="#000088"/>
<path d="M12.2753 15.7035L12.8029 14.1056L12.9172 13.308L12.6174 14.0559L12.2753 15.7035Z" fill="#000088"/>
<path d="M15.1333 14.8181C15.1964 14.8665 15.2867 14.8546 15.3352 14.7915C15.3836 14.7284 15.3717 14.638 15.3086 14.5896C15.2455 14.5412 15.1551 14.5531 15.1067 14.6162C15.0583 14.6793 15.0702 14.7697 15.1333 14.8181Z" fill="#000088"/>
<path d="M11.6 15.4243L12.5231 14.0173L12.84 13.2765L12.3568 13.9213L11.6 15.4243Z" fill="#000088"/>
<path d="M14.5894 15.3091C14.6378 15.3722 14.7282 15.3841 14.7913 15.3357C14.8544 15.2873 14.8663 15.1969 14.8179 15.1338C14.7695 15.0707 14.6791 15.0588 14.616 15.1072C14.5529 15.1556 14.541 15.246 14.5894 15.3091Z" fill="#000088"/>
<path d="M11.0201 14.9797L12.2759 13.8597L12.7737 13.2261L12.1401 13.7239L11.0201 14.9797Z" fill="#000088"/>
<path d="M13.9377 15.6397C13.9681 15.7132 14.0524 15.7481 14.1259 15.7177C14.1993 15.6872 14.2342 15.603 14.2038 15.5295C14.1734 15.456 14.0891 15.4212 14.0156 15.4516C13.9422 15.482 13.9073 15.5663 13.9377 15.6397Z" fill="#000088"/>
<path d="M10.5753 14.3974L12.0782 13.6405L12.723 13.1574L11.9822 13.4742L10.5753 14.3974Z" fill="#000088"/>
<path d="M13.2218 15.7936C13.2322 15.8725 13.3045 15.928 13.3833 15.9176C13.4622 15.9072 13.5177 15.8349 13.5073 15.756C13.4969 15.6772 13.4246 15.6217 13.3458 15.6321C13.2669 15.6425 13.2114 15.7148 13.2218 15.7936Z" fill="#000088"/>
<path d="M10.2956 13.7229L11.9432 13.3808L12.6911 13.081L11.8935 13.1953L10.2956 13.7229Z" fill="#000088"/>
<path d="M12.4908 15.7556C12.4805 15.8344 12.536 15.9068 12.6148 15.9171C12.6937 15.9275 12.766 15.872 12.7764 15.7932C12.7868 15.7143 12.7312 15.642 12.6524 15.6316C12.5735 15.6212 12.5012 15.6767 12.4908 15.7556Z" fill="#000088"/>
<path d="M10.2002 12.9983L11.8802 13.0943L12.6802 12.9983L11.8802 12.9023L10.2002 12.9983Z" fill="#000088"/>
<path d="M11.7945 15.5306C11.7641 15.6041 11.799 15.6883 11.8725 15.7188C11.9459 15.7492 12.0302 15.7143 12.0606 15.6409C12.0911 15.5674 12.0562 15.4831 11.9827 15.4527C11.9092 15.4223 11.825 15.4572 11.7945 15.5306Z" fill="#000088"/>
<path d="M10.2955 12.2751L11.8934 12.8026L12.691 12.9169L11.9431 12.6172L10.2955 12.2751Z" fill="#000088"/>
<path d="M11.1804 15.1323C11.132 15.1954 11.1439 15.2858 11.207 15.3342C11.2701 15.3826 11.3605 15.3707 11.4089 15.3076C11.4573 15.2445 11.4454 15.1541 11.3823 15.1057C11.3192 15.0573 11.2288 15.0692 11.1804 15.1323Z" fill="#000088"/>
<path d="M10.5753 11.601L11.9822 12.5241L12.723 12.841L12.0782 12.3578L10.5753 11.601Z" fill="#000088"/>
<path d="M10.6902 14.5896C10.6271 14.6381 10.6152 14.7285 10.6636 14.7915C10.712 14.8546 10.8024 14.8665 10.8655 14.8181C10.9286 14.7697 10.9405 14.6793 10.8921 14.6162C10.8437 14.5531 10.7533 14.5412 10.6902 14.5896Z" fill="#000088"/>
<path d="M11.02 11.0193L12.1401 12.2752L12.7737 12.773L12.2759 12.1394L11.02 11.0193Z" fill="#000088"/>
<path d="M10.3576 13.9375C10.2841 13.9679 10.2492 14.0521 10.2796 14.1256C10.3101 14.1991 10.3943 14.234 10.4678 14.2035C10.5413 14.1731 10.5762 14.0889 10.5457 14.0154C10.5153 13.9419 10.4311 13.907 10.3576 13.9375Z" fill="#000088"/>
<path d="M11.6 10.576L12.3568 12.079L12.84 12.7238L12.5231 11.983L11.6 10.576Z" fill="#000088"/>
<path d="M10.2051 13.2215C10.1263 13.2319 10.0708 13.3043 10.0812 13.3831C10.0915 13.462 10.1639 13.5175 10.2427 13.5071C10.3216 13.4967 10.3771 13.4244 10.3667 13.3455C10.3563 13.2667 10.284 13.2112 10.2051 13.2215Z" fill="#000088"/>
<path d="M12.2754 10.2954L12.6175 11.943L12.9173 12.6909L12.803 11.8933L12.2754 10.2954Z" fill="#000088"/>
<path d="M10.2427 12.4925C10.1639 12.4822 10.0915 12.5377 10.0812 12.6165C10.0708 12.6954 10.1263 12.7677 10.2051 12.7781C10.284 12.7885 10.3563 12.733 10.3667 12.6541C10.3771 12.5753 10.3216 12.5029 10.2427 12.4925Z" fill="#000088"/>
<path d="M12.9999 10.2016L12.9039 11.8816L12.9999 12.6816L13.0959 11.8816L12.9999 10.2016Z" fill="#000088"/>
<path d="M10.4686 11.796C10.3952 11.7656 10.3109 11.8005 10.2805 11.8739C10.25 11.9474 10.2849 12.0316 10.3584 12.0621C10.4319 12.0925 10.5161 12.0576 10.5466 11.9841C10.577 11.9107 10.5421 11.8264 10.4686 11.796Z" fill="#000088"/>
<path d="M13.7247 10.2965L13.1971 11.8944L13.0828 12.692L13.3826 11.9441L13.7247 10.2965Z" fill="#000088"/>
<path d="M10.8667 11.1819C10.8036 11.1335 10.7133 11.1454 10.6648 11.2085C10.6164 11.2716 10.6283 11.362 10.6914 11.4104C10.7545 11.4588 10.8449 11.4469 10.8933 11.3838C10.9417 11.3207 10.9298 11.2303 10.8667 11.1819Z" fill="#000088"/>
<path d="M14.4 10.5757L13.4769 11.9827L13.16 12.7235L13.6432 12.0787L14.4 10.5757Z" fill="#000088"/>
<path d="M11.4106 10.6909C11.3622 10.6278 11.2718 10.6159 11.2087 10.6643C11.1456 10.7127 11.1337 10.8031 11.1821 10.8662C11.2305 10.9293 11.3209 10.9412 11.384 10.8928C11.4471 10.8444 11.459 10.754 11.4106 10.6909Z" fill="#000088"/>
<path d="M14.9799 11.0203L13.7241 12.1403L13.2263 12.7739L13.8599 12.2761L14.9799 11.0203Z" fill="#000088"/>
<path d="M12.0625 10.3583C12.0321 10.2848 11.9479 10.2499 11.8744 10.2804C11.8009 10.3108 11.766 10.395 11.7965 10.4685C11.8269 10.542 11.9111 10.5769 11.9846 10.5465C12.0581 10.516 12.093 10.4318 12.0625 10.3583Z" fill="#000088"/>
<path d="M15.4249 11.6007L13.922 12.3576L13.2772 12.8407L14.018 12.5238L15.4249 11.6007Z" fill="#000088"/>
<path d="M12.7785 10.2044C12.7681 10.1256 12.6957 10.0701 12.6169 10.0804C12.538 10.0908 12.4825 10.1631 12.4929 10.242C12.5033 10.3208 12.5756 10.3764 12.6545 10.366C12.7333 10.3556 12.7888 10.2833 12.7785 10.2044Z" fill="#000088"/>
<path d="M15.7046 12.2752L14.057 12.6173L13.3091 12.917L14.1067 12.8027L15.7046 12.2752Z" fill="#000088"/>
<path d="M13.5094 10.2425C13.5198 10.1636 13.4643 10.0913 13.3854 10.0809C13.3066 10.0705 13.2343 10.126 13.2239 10.2049C13.2135 10.2837 13.269 10.3561 13.3478 10.3665C13.4267 10.3768 13.499 10.3213 13.5094 10.2425Z" fill="#000088"/>
<path d="M15.8001 12.9997L14.1201 12.9037L13.3201 12.9997L14.1201 13.0957L15.8001 12.9997Z" fill="#000088"/>
<path d="M14.2057 10.4674C14.2361 10.3939 14.2012 10.3097 14.1278 10.2793C14.0543 10.2488 13.9701 10.2837 13.9396 10.3572C13.9092 10.4307 13.9441 10.5149 14.0176 10.5453C14.091 10.5758 14.1753 10.5409 14.2057 10.4674Z" fill="#000088"/>
<path d="M15.7048 13.723L14.1069 13.1954L13.3093 13.0811L14.0572 13.3809L15.7048 13.723Z" fill="#000088"/>
<path d="M14.8198 10.8658C14.8682 10.8027 14.8563 10.7123 14.7932 10.6639C14.7301 10.6154 14.6397 10.6274 14.5913 10.6904C14.5429 10.7535 14.5548 10.8439 14.6179 10.8923C14.681 10.9408 14.7714 10.9289 14.8198 10.8658Z" fill="#000088"/>
<path d="M15.425 14.3971L14.0181 13.474L13.2772 13.1571L13.9221 13.6402L15.425 14.3971Z" fill="#000088"/>
<path d="M15.3101 11.4084C15.3732 11.36 15.3851 11.2696 15.3367 11.2065C15.2882 11.1434 15.1978 11.1315 15.1348 11.1799C15.0717 11.2283 15.0598 11.3187 15.1082 11.3818C15.1566 11.4449 15.247 11.4568 15.3101 11.4084Z" fill="#000088"/>
<path d="M14.9802 14.9787L13.8601 13.7229L13.2266 13.2251L13.7244 13.8587L14.9802 14.9787Z" fill="#000088"/>
<path d="M15.6427 12.0606C15.7161 12.0301 15.751 11.9459 15.7206 11.8724C15.6902 11.799 15.6059 11.7641 15.5325 11.7945C15.459 11.8249 15.4241 11.9092 15.4545 11.9826C15.485 12.0561 15.5692 12.091 15.6427 12.0606Z" fill="#000088"/>
<path d="M14.4003 15.422L13.6434 13.9191L13.1603 13.2743L13.4771 14.0151L14.4003 15.422Z" fill="#000088"/>
<path d="M15.7951 12.7765C15.874 12.7661 15.9295 12.6938 15.9191 12.6149C15.9087 12.5361 15.8364 12.4806 15.7575 12.491C15.6787 12.5014 15.6232 12.5737 15.6335 12.6525C15.6439 12.7314 15.7163 12.7869 15.7951 12.7765Z" fill="#000088"/>
<path d="M13.7248 15.7027L13.3827 14.0551L13.083 13.3072L13.1973 14.1048L13.7248 15.7027Z" fill="#000088"/>
</g>
<rect x="0.5" y="0.5" width="25" height="25" rx="12.5" stroke="#B4B4BF"/>
<defs>
<clipPath id="clip0_917_18977">
<rect x="1" y="1" width="24" height="24" rx="12" fill="white"/>
</clipPath>
</defs>
</svg>
