<svg width="26" height="26" viewBox="0 0 26 26" fill="none" xmlns="http://www.w3.org/2000/svg">
<g clip-path="url(#clip0_917_35)">
<rect width="24" height="24" transform="translate(1 1)" fill="white"/>
<path fill-rule="evenodd" clip-rule="evenodd" d="M17.956 12.995C17.9732 13.668 17.8591 14.3377 17.6204 14.9646C17.3817 15.5915 17.0232 16.1629 16.5662 16.6452C16.1091 17.1274 15.5627 17.5107 14.9592 17.7724C14.3557 18.0341 13.7073 18.1689 13.0523 18.1689C12.3973 18.1689 11.7489 18.0341 11.1454 17.7724C10.5419 17.5107 9.99547 17.1274 9.53841 16.6452C9.08136 16.1629 8.7229 15.5915 8.48419 14.9646C8.24548 14.3377 8.13135 13.668 8.14853 12.995C8.13135 12.322 8.24548 11.6523 8.48419 11.0254C8.7229 10.3985 9.08136 9.82706 9.53841 9.34483C9.99547 8.8626 10.5419 8.47932 11.1454 8.21762C11.7489 7.95592 12.3973 7.8211 13.0523 7.8211C13.7073 7.8211 14.3557 7.95592 14.9592 8.21762C15.5627 8.47932 16.1091 8.8626 16.5662 9.34483C17.0232 9.82706 17.3817 10.3985 17.6204 11.0254C17.8591 11.6523 17.9732 12.322 17.956 12.995Z" fill="#C70000"/>
<path fill-rule="evenodd" clip-rule="evenodd" d="M3.02036 8.32299L5.84276 5.00196L6.5146 5.58924L3.68882 8.9137L3.02036 8.32299ZM3.9454 9.13693L6.7678 5.8159L7.43964 6.39975L4.61387 9.72764L3.9454 9.13693Z" fill="black"/>
<path fill-rule="evenodd" clip-rule="evenodd" d="M3.02036 8.32299L5.84276 5.00196L6.5146 5.58924L3.68882 8.9137L3.02036 8.32299Z" fill="black"/>
<path fill-rule="evenodd" clip-rule="evenodd" d="M3.02036 8.32299L5.84276 5.00196L6.5146 5.58924L3.68882 8.9137L3.02036 8.32299ZM4.8907 9.97148L7.71311 6.64359L8.38495 7.2343L5.55917 10.5588L4.8907 9.97148Z" fill="black"/>
<path fill-rule="evenodd" clip-rule="evenodd" d="M3.02036 8.32299L5.84276 5.00196L6.5146 5.58924L3.68882 8.9137L3.02036 8.32299Z" fill="black"/>
<path fill-rule="evenodd" clip-rule="evenodd" d="M8.21947 12.241C8.37477 13.5117 8.60097 14.9266 10.522 15.0709C11.2411 15.1155 12.6421 14.8992 13.1215 12.9004C13.7562 10.984 15.6536 10.4345 16.9466 11.4717C17.686 11.9594 17.8886 12.7321 17.9358 13.3159C17.8784 15.1705 16.8251 16.7846 15.478 17.5059C13.925 18.4434 11.7779 18.464 9.89738 17.0422C9.04998 16.2351 7.86498 14.7412 8.21947 12.241Z" fill="#3D5897"/>
<path fill-rule="evenodd" clip-rule="evenodd" d="M5.55569 15.4432L8.35784 18.7848L7.68262 19.3687L4.88048 16.027L5.55569 15.4432ZM3.67522 17.0745L6.47736 20.4162L5.80215 21L3 17.6584L3.67522 17.0745Z" fill="black"/>
<path d="M3.94877 16.8328L4.62398 16.2489L5.74754 17.5888L5.07693 18.1781L3.94877 16.8328Z" fill="black"/>
<path d="M7.42613 19.5906L6.75091 20.1744L5.5984 18.8L6.2577 18.1972L7.42613 19.5906Z" fill="black"/>
<path fill-rule="evenodd" clip-rule="evenodd" d="M3.02036 8.32446L5.84276 5.00343L6.5146 5.59071L3.68882 8.91517L3.02036 8.32446ZM20.1979 5L21.3149 6.33347L20.6446 6.92316L19.5226 5.58384L20.1979 5ZM21.1493 7.52565L21.809 6.92328L23 8.34507L22.3248 8.92891L21.1493 7.52565ZM19.9692 8.6032L19.3095 9.20557L20.4443 10.5602L21.1195 9.97639L19.9692 8.6032Z" fill="black"/>
<path fill-rule="evenodd" clip-rule="evenodd" d="M17.6422 7.21516L18.3174 6.63132L19.4455 7.97802L18.7754 8.56801L17.6422 7.21516Z" fill="black"/>
<path fill-rule="evenodd" clip-rule="evenodd" d="M20.9579 18.0791L22.0479 16.7579L21.3828 16.1947L20.2959 17.5121L20.9579 18.0791ZM21.2101 18.295L21.8741 18.8637L22.9696 17.5375L22.3011 16.9743L21.2101 18.295ZM19.5834 20.2644L20.6635 18.9567L21.3253 19.5281L20.2518 20.8276L19.5834 20.2644ZM19.7527 18.1705L20.4126 18.7401L19.3335 20.048L18.6684 19.4848L19.7527 18.1705ZM21.1093 15.9646L20.0244 17.2796L19.3624 16.7127L20.4443 15.4013L21.1093 15.9646ZM18.8223 17.3673L19.4822 17.9369L18.395 19.2547L17.7299 18.6915L18.8223 17.3673ZM22.0681 9.1508L19.266 5.80574L18.5975 6.38614L21.3963 9.73465L22.0681 9.1508Z" fill="black"/>
</g>
<rect x="0.5" y="0.5" width="25" height="25" rx="12.5" stroke="#B4B4BF"/>
<defs>
<clipPath id="clip0_917_35">
<rect x="1" y="1" width="24" height="24" rx="12" fill="white"/>
</clipPath>
</defs>
</svg>
