<svg xmlns="http://www.w3.org/2000/svg" xmlns:xlink="http://www.w3.org/1999/xlink"><symbol fill="none" id="airplane-sym" viewBox="0 0 80 80"><title>airplane</title><g clip-path="url(#a)" fill-rule="evenodd" clip-rule="evenodd"><path d="M80 48.726c-.394.696-.826 1.373-1.175 2.09-1.259 2.594-3.499 3.72-6.194 3.991-1.806.181-3.641.078-5.464.104-.23.003-.46.022-.802.038.817 1.568 1.017 3.182.283 4.699a6.781 6.781 0 0 1-1.996 2.42c-1.82 1.342-4.389 1.161-6.116-.218-2.043-1.631-2.505-3.813-1.42-6.886-.237-.019-.457-.051-.676-.052-1.902-.004-3.804.013-5.705-.012-.493-.007-.802.14-1.095.553-2.274 3.203-5.335 5.089-9.302 5.236-3.409.127-6.29-1.182-8.672-3.603-.346-.352-.729-.7-.96-1.125-.47-.861-1.12-1.119-2.091-1.076-1.895.084-3.796.025-5.778.025 1.215 2.966.817 5.497-1.926 7.27-1.983 1.281-4.38 1-6.166-.51-1.857-1.57-2.28-3.857-1.188-6.716-.32-.015-.612-.033-.905-.044-2.078-.075-4.182.029-6.227-.269-2.368-.344-4.259-1.609-5.315-3.889-.251-.542-.561-1.057-.834-1.589-.654-1.274-.118-2.153 1.326-2.154 6.225-.005 12.45-.002 18.675-.002 1.225 0 2.45-.02 3.673.012.779.021 1.326.586 1.324 1.268-.002.694-.532 1.197-1.33 1.253-.207.014-.416.008-.625.008H3.494c.238 1.167 1.076 1.755 2.008 2.124.855.339 1.797.63 2.703.637 6.642.053 13.284.029 19.926.028.128 0 .256-.014.512-.03-1.308-3.96-1.073-7.799.82-11.623-.378-.019-.647-.043-.916-.043-3.334-.002-6.668 0-10.002-.003-.286 0-.575.002-.858-.032-.665-.082-1.037-.512-1.091-1.138-.055-.638.284-1.108.91-1.289.292-.084.617-.078.927-.078 4.037-.005 8.075.01 12.111-.025a1.939 1.939 0 0 0 1.206-.489c1.127-1.07 2.348-1.985 3.792-2.56.509-.204.626-.493.624-.999-.018-3.907.005-7.814-.015-11.721-.012-2.31.99-3.981 3.013-5.072.554-.299 1.076-.306 1.631-.008 2.022 1.086 3.038 2.751 3.027 5.064-.02 3.802.021 7.606-.026 11.408-.01.804.285 1.117.962 1.5 1.231.698 2.325 1.636 3.5 2.44.315.216.714.436 1.076.439 4.063.03 8.127.018 12.19.022.31 0 .635-.008.928.074.628.174.974.64.927 1.278-.046.626-.413 1.063-1.077 1.151-.283.038-.572.035-.858.035-3.308.002-6.615.002-9.924.002h-1.009c1.839 3.81 2.175 7.645.798 11.653.338.019.584.044.83.044 6.434.002 12.867-.006 19.3.008 1.37.003 2.65-.295 3.755-1.093.54-.39.95-.96 1.42-1.45l-.142-.217c-.272-.012-.543-.035-.814-.035-6.277-.002-12.554-.001-18.832-.002-.26 0-.521.009-.78-.01-.797-.055-1.318-.565-1.31-1.266.008-.695.542-1.204 1.334-1.26.181-.014.364-.005.547-.005 7.163 0 14.325.009 21.488-.013.78-.003 1.423.148 1.895.794v.938Zm-30.391-1.141c-.03-2.639-.683-4.876-2.09-6.878-3.483-4.956-10.007-5.46-14.172-1.093-4.21 4.415-3.908 12.111.635 16.185 3.655 3.276 8.939 3.119 12.396-.376 2.202-2.227 3.177-4.954 3.23-7.838Zm-8.442-13.498c.035-.093.068-.14.068-.187.003-4.054.03-8.108-.028-12.161-.008-.535-.405-1.093-.708-1.588-.31-.504-.787-.453-1.042.027-.317.597-.691 1.264-.702 1.907-.066 3.819-.033 7.64-.03 11.46 0 .176.03.351.047.542h2.395ZM20.936 57.68a2.71 2.71 0 0 0-2.76-2.757 2.74 2.74 0 0 0-2.728 2.725c-.008 1.519 1.266 2.794 2.773 2.777a2.758 2.758 0 0 0 2.715-2.745Zm38.102-.053c-.014 1.541 1.218 2.8 2.74 2.799 1.48-.001 2.73-1.24 2.748-2.726a2.74 2.74 0 0 0-2.754-2.776 2.707 2.707 0 0 0-2.734 2.703Z" fill="url(#b)"/><path d="M39.965 45.116c-1.587 0-3.175.005-4.762-.003-.584-.003-1.145-.186-1.306-.782-.102-.378-.068-.925.148-1.219.22-.299.735-.528 1.124-.533 3.2-.042 6.4-.037 9.601-.017.912.006 1.467.546 1.453 1.291-.014.742-.584 1.247-1.496 1.258-1.587.018-3.175.005-4.762.005Z" fill="url(#c)"/></g><defs><linearGradient id="b" x1=".938" y1="40.04" x2="80" y2="40.04" gradientUnits="userSpaceOnUse"><stop stop-color="#F97900"/><stop offset="1" stop-color="#FA9800"/></linearGradient><linearGradient id="c" x1="33.987" y1="43.836" x2="46.224" y2="43.836" gradientUnits="userSpaceOnUse"><stop stop-color="#F97900"/><stop offset="1" stop-color="#FA9800"/></linearGradient><clipPath id="a"><path fill="#fff" d="M0 0h80v80H0z"/></clipPath></defs></symbol><use fill="none" xlink:href="#airplane-sym" width="80" height="80"/><view id="airplane" viewBox="0 0 80 80"/><symbol fill="none" id="whatsapp-sym" viewBox="0 0 20 20"><title>whatsapp</title><g clip-path="url(#a)"><path fill-rule="evenodd" clip-rule="evenodd" d="M10.585 20H9.491c-.283-.032-.568-.057-.851-.096a9.773 9.773 0 0 1-3.976-1.46.362.362 0 0 0-.343-.044c-.666.22-1.335.432-2.003.646l-1.655.527c.026-.084.041-.138.06-.191.363-1.084.72-2.17 1.095-3.25a.507.507 0 0 0-.073-.514 9.676 9.676 0 0 1-1.702-4.734c-.188-2.137.24-4.154 1.366-5.982C3.28 1.868 6.02.222 9.58.016c1.972-.114 3.828.361 5.516 1.39 2.597 1.583 4.189 3.877 4.75 6.873.07.375.104.757.155 1.135v1.172l-.048.422c-.239 2.144-1.055 4.038-2.498 5.645-1.542 1.717-3.454 2.789-5.732 3.192-.376.066-.758.104-1.137.155Zm2.648-4.365c.321-.062.598-.083.853-.17 1.416-.483 1.898-1.167 1.94-2.47.006-.205-.066-.346-.255-.436-.745-.354-1.485-.72-2.233-1.068-.383-.178-.607-.105-.86.235-.194.261-.384.526-.584.781-.305.39-.52.44-.983.252-1.646-.673-2.87-1.826-3.789-3.327-.184-.301-.174-.428.06-.698.187-.217.38-.428.567-.645.23-.268.327-.557.137-.893-.05-.09-.08-.192-.121-.288-.284-.67-.563-1.341-.86-2.005-.047-.108-.16-.236-.264-.26-.532-.124-1.07-.132-1.528.22-.42.322-.714.753-.9 1.25-.366.983-.249 1.94.156 2.883.298.694.733 1.302 1.178 1.903a13.836 13.836 0 0 0 2.606 2.704c1.069.834 2.287 1.358 3.572 1.742.438.131.896.2 1.308.29Z" fill="#000"/></g><defs><clipPath id="a"><path fill="#000" d="M0 0h20v20H0z"/></clipPath></defs></symbol><use fill="none" xlink:href="#whatsapp-sym" y="80" width="20" height="20"/><view id="whatsapp" viewBox="0 80 20 20"/></svg>