<svg width="26" height="20" viewBox="0 0 26 20" fill="none" xmlns="http://www.w3.org/2000/svg">
<path d="M11.5004 19.5781C11.3484 19.5781 11.1984 19.5087 11.1004 19.377C10.9344 19.1547 10.9794 18.8399 11.2004 18.6729L12.6664 17.5666L11.2004 16.4603C10.9794 16.2933 10.9344 15.9785 11.1004 15.7563C11.2664 15.534 11.5794 15.4897 11.8004 15.6557L13.8004 17.1643C13.9264 17.2589 14.0004 17.4087 14.0004 17.5666C14.0004 17.7245 13.9264 17.8744 13.8004 17.9689L11.8004 19.4775C11.7104 19.5449 11.6054 19.5781 11.5004 19.5781Z" fill="white"/>
<path d="M13 18.0695C11.488 18.0695 10.057 17.9971 8.746 17.8552C6.932 17.6712 1 16.8887 1 14.5493C1 13.5949 1.979 12.7973 3.908 12.1798C4.225 12.0812 4.565 12.3297 4.565 12.6595C4.565 12.9029 4.397 13.1061 4.169 13.1524C2.569 13.6703 2 14.2285 2 14.5493C2 15.2192 4.125 16.3758 8.85 16.8545C10.128 16.9933 11.523 17.0637 13 17.0637C13.276 17.0637 13.5 17.289 13.5 17.5666C13.5 17.8442 13.276 18.0695 13 18.0695Z" fill="white"/>
<path d="M16.49 17.9186C16.232 17.9186 16.013 17.7195 15.992 17.457C15.97 17.1804 16.175 16.937 16.45 16.9149C21.6 16.4915 24 15.2534 24 14.5494C24 14.2255 23.421 13.6613 21.788 13.1383C21.525 13.0538 21.38 12.7712 21.463 12.5067C21.547 12.2422 21.827 12.0963 22.091 12.1798C24.021 12.7973 25 13.5949 25 14.5494C25 17.0285 18.518 17.7537 16.531 17.9176C16.517 17.9186 16.503 17.9186 16.49 17.9186Z" fill="white"/>
<path d="M13 6.45636C12.939 6.45636 12.878 6.4453 12.82 6.42317L6.32 3.9088C6.127 3.83438 6 3.64731 6 3.43912C6 3.23093 6.127 3.04386 6.32 2.96943L12.82 0.455065C12.936 0.410812 13.063 0.410812 13.179 0.455065L19.679 2.96943C19.873 3.04386 20 3.23093 20 3.43912C20 3.64731 19.873 3.83438 19.68 3.9088L13.18 6.42317C13.122 6.4453 13.061 6.45636 13 6.45636ZM7.893 3.43912L13 5.4144L18.107 3.43912L13 1.46383L7.893 3.43912Z" fill="white"/>
<path d="M13 14.5036C12.939 14.5036 12.878 14.4925 12.82 14.4704L6.32 11.956C6.127 11.8816 6 11.6945 6 11.4864V3.44037C6 3.16279 6.224 2.9375 6.5 2.9375C6.776 2.9375 7 3.16279 7 3.44037V11.1414L13 13.4626L19 11.1414V3.44037C19 3.16279 19.224 2.9375 19.5 2.9375C19.776 2.9375 20 3.16279 20 3.44037V11.4864C20 11.6945 19.873 11.8816 19.68 11.956L13.18 14.4704C13.122 14.4925 13.061 14.5036 13 14.5036Z" fill="white"/>
<path d="M13 14.5036C12.724 14.5036 12.5 14.2776 12.5 14V5.95405C12.5 5.67646 12.724 5.45117 13 5.45117C13.276 5.45117 13.5 5.67646 13.5 5.95405V14C13.5 14.2776 13.276 14.5036 13 14.5036Z" fill="white"/>
<path d="M13 14.5036C12.939 14.5036 12.878 14.4925 12.82 14.4704L6.32 11.956C6.127 11.8816 6 11.6945 6 11.4864V3.44037C6 3.16279 6.224 2.9375 6.5 2.9375C6.776 2.9375 7 3.16279 7 3.44037V11.1414L13 13.4626L19 11.1414V3.44037C19 3.16279 19.224 2.9375 19.5 2.9375C19.776 2.9375 20 3.16279 20 3.44037V11.4864C20 11.6945 19.873 11.8816 19.68 11.956L13.18 14.4704C13.122 14.4925 13.061 14.5036 13 14.5036ZM13 14.5036C12.724 14.5036 12.5 14.2776 12.5 14V5.95405C12.5 5.67646 12.724 5.45117 13 5.45117C13.276 5.45117 13.5 5.67646 13.5 5.95405V14C13.5 14.2776 13.276 14.5036 13 14.5036ZM11.5004 19.5781C11.3484 19.5781 11.1984 19.5087 11.1004 19.377C10.9344 19.1547 10.9794 18.8399 11.2004 18.6729L12.6664 17.5666L11.2004 16.4603C10.9794 16.2933 10.9344 15.9785 11.1004 15.7563C11.2664 15.534 11.5794 15.4897 11.8004 15.6557L13.8004 17.1643C13.9264 17.2589 14.0004 17.4087 14.0004 17.5666C14.0004 17.7245 13.9264 17.8744 13.8004 17.9689L11.8004 19.4775C11.7104 19.5449 11.6054 19.5781 11.5004 19.5781ZM13 18.0695C11.488 18.0695 10.057 17.9971 8.746 17.8552C6.932 17.6712 1 16.8887 1 14.5493C1 13.5949 1.979 12.7973 3.908 12.1798C4.225 12.0812 4.565 12.3297 4.565 12.6595C4.565 12.9029 4.397 13.1061 4.169 13.1524C2.569 13.6703 2 14.2285 2 14.5493C2 15.2192 4.125 16.3758 8.85 16.8545C10.128 16.9933 11.523 17.0637 13 17.0637C13.276 17.0637 13.5 17.289 13.5 17.5666C13.5 17.8442 13.276 18.0695 13 18.0695ZM16.49 17.9186C16.232 17.9186 16.013 17.7195 15.992 17.457C15.97 17.1804 16.175 16.937 16.45 16.9149C21.6 16.4915 24 15.2534 24 14.5494C24 14.2255 23.421 13.6613 21.788 13.1383C21.525 13.0538 21.38 12.7712 21.463 12.5067C21.547 12.2422 21.827 12.0963 22.091 12.1798C24.021 12.7973 25 13.5949 25 14.5494C25 17.0285 18.518 17.7537 16.531 17.9176C16.517 17.9186 16.503 17.9186 16.49 17.9186ZM13 6.45636C12.939 6.45636 12.878 6.4453 12.82 6.42317L6.32 3.9088C6.127 3.83438 6 3.64731 6 3.43912C6 3.23093 6.127 3.04386 6.32 2.96943L12.82 0.455065C12.936 0.410812 13.063 0.410812 13.179 0.455065L19.679 2.96943C19.873 3.04386 20 3.23093 20 3.43912C20 3.64731 19.873 3.83438 19.68 3.9088L13.18 6.42317C13.122 6.4453 13.061 6.45636 13 6.45636ZM7.893 3.43912L13 5.4144L18.107 3.43912L13 1.46383L7.893 3.43912Z" stroke="white" stroke-width="0.5"/>
</svg>
