<svg width="21" height="24" viewBox="0 0 21 24" fill="none" xmlns="http://www.w3.org/2000/svg">
<path fill-rule="evenodd" clip-rule="evenodd" d="M0.649902 3.00039C0.649902 1.42638 1.92589 0.150391 3.4999 0.150391H17.4999C19.0739 0.150391 20.3499 1.42638 20.3499 3.00039V23.0004C20.3499 23.3016 20.1905 23.5802 19.931 23.733C19.6714 23.8857 19.3504 23.8897 19.0871 23.7434L10.4999 18.9728L1.9127 23.7434C1.64943 23.8897 1.32841 23.8857 1.06884 23.733C0.809273 23.5802 0.649902 23.3016 0.649902 23.0004V3.00039ZM3.4999 1.85039C2.86477 1.85039 2.3499 2.36526 2.3499 3.00039V21.5558L10.0871 17.2574C10.3438 17.1147 10.656 17.1147 10.9127 17.2574L18.6499 21.5558V3.00039C18.6499 2.36526 18.135 1.85039 17.4999 1.85039H3.4999Z" fill="#383838"/>
</svg>
