<svg width="22" height="21" viewBox="0 0 22 21" fill="none" xmlns="http://www.w3.org/2000/svg">
<path fill-rule="evenodd" clip-rule="evenodd" d="M2.80005 1.6C2.48179 1.6 2.17657 1.72643 1.95153 1.95147C1.72648 2.17652 1.60005 2.48174 1.60005 2.8V13.204C1.59136 14.1772 2.20012 14.1266 3.15787 14.2997C3.50111 14.3618 3.76448 14.6393 3.80859 14.9853L4.10015 17.2726L6.73447 14.6383C6.8845 14.4883 7.08798 14.404 7.30015 14.404H19.2001C19.5183 14.404 19.8235 14.2776 20.0486 14.0525C20.2736 13.8275 20.4001 13.5222 20.4001 13.204V2.8C20.4001 2.48174 20.2736 2.17652 20.0486 1.95147C19.8235 1.72643 19.5183 1.6 19.2001 1.6H2.80005ZM0.820155 0.820101C1.34526 0.294999 2.05745 0 2.80005 0L19.2001 0C19.9427 0 20.6549 0.294999 21.18 0.820101C21.7051 1.3452 22.0001 2.05739 22.0001 2.8V13.204C22.0001 13.9466 21.7051 14.6588 21.18 15.1839C20.6549 15.709 19.9427 16.004 19.2001 16.004H7.63152L3.86584 19.7697C3.63704 19.9985 3.29295 20.0669 2.99401 19.9431C2.69507 19.8193 2.50015 19.5276 2.50015 19.204L2.02558 16.0901C2.01683 16.0327 2.1449 16.4932 2.01054 15.9966C1.92437 15.6781 1.53311 15.5639 0.999763 15.5229C0.449091 15.4806 1.05828e-05 15.0523 2.36372e-05 14.5L5.427e-05 13.204V2.8C5.427e-05 2.05739 0.295053 1.3452 0.820155 0.820101Z" fill="#383838"/>
</svg>
