<svg width="20" height="21" viewBox="0 0 20 21" fill="none" xmlns="http://www.w3.org/2000/svg">
<path d="M12.7998 4.72695H14.7998C15.0206 4.72695 15.1998 4.54775 15.1998 4.32695V1.63215C15.1998 1.42255 15.0386 1.24815 14.8298 1.23335C14.1934 1.18815 12.9502 1.12695 12.0562 1.12695C9.5998 1.12695 7.9998 2.59895 7.9998 5.27415V7.92695H5.1998C4.979 7.92695 4.7998 8.10615 4.7998 8.32695V11.127C4.7998 11.3478 4.979 11.527 5.1998 11.527H7.9998V19.127C7.9998 19.3478 8.179 19.527 8.3998 19.527H11.1998C11.4206 19.527 11.5998 19.3478 11.5998 19.127V11.527H14.4886C14.6926 11.527 14.8638 11.3738 14.8862 11.171L15.1974 8.37095C15.2238 8.13415 15.0382 7.92695 14.7998 7.92695H11.5998V5.92695C11.5998 5.26415 12.137 4.72695 12.7998 4.72695Z" fill="white"/>
</svg>
