<svg width="24" height="24" viewBox="0 0 24 24" fill="none" xmlns="http://www.w3.org/2000/svg">
<path d="M12.0317 5.84118V4" stroke="#383838" stroke-width="1.4" stroke-linecap="round" stroke-linejoin="round"/>
<path d="M12.0317 20V14.5" stroke="#383838" stroke-width="1.4" stroke-linecap="round" stroke-linejoin="round"/>
<path d="M3.5 11.5V4" stroke="#383838" stroke-width="1.4" stroke-linecap="round" stroke-linejoin="round"/>
<path d="M20.5 19.6931V16" stroke="#383838" stroke-width="1.4" stroke-linecap="round" stroke-linejoin="round"/>
<path d="M20.5217 7.5L20.5215 4" stroke="#383838" stroke-width="1.4" stroke-linecap="round" stroke-linejoin="round"/>
<path d="M12.0352 6.00025C11.5393 5.99326 11.0525 6.13393 10.6368 6.40435C10.2211 6.67477 9.89518 7.06273 9.70056 7.51889C9.50593 7.97504 9.45137 8.47878 9.54382 8.96603C9.63627 9.45328 9.87154 9.90202 10.2197 10.2552C10.5679 10.6083 11.0133 10.85 11.4991 10.9493C11.985 11.0487 12.4895 11.0013 12.9483 10.8131C13.4072 10.625 13.7997 10.3046 14.076 9.89276C14.3523 9.48091 14.4998 8.99619 14.4999 8.50025C14.503 8.17404 14.4416 7.85044 14.3193 7.54802C14.1969 7.24561 14.0161 6.97035 13.787 6.73804C13.558 6.50574 13.2853 6.32097 12.9847 6.19436C12.6841 6.06775 12.3614 6.00178 12.0352 6.00025V6.00025Z" stroke="#383838" stroke-width="1.4" stroke-linecap="round" stroke-linejoin="round"/>
<path d="M20.5352 11.0002C20.0393 10.9933 19.5525 11.1339 19.1368 11.4044C18.7211 11.6748 18.3952 12.0627 18.2006 12.5189C18.0059 12.975 17.9514 13.4788 18.0438 13.966C18.1363 14.4533 18.3715 14.902 18.7197 15.2552C19.0679 15.6083 19.5133 15.85 19.9991 15.9493C20.485 16.0487 20.9895 16.0013 21.4483 15.8131C21.9072 15.625 22.2997 15.3046 22.576 14.8928C22.8523 14.4809 22.9998 13.9962 22.9999 13.5002C23.003 13.174 22.9416 12.8504 22.8193 12.548C22.6969 12.2456 22.5161 11.9703 22.287 11.738C22.058 11.5057 21.7853 11.321 21.4847 11.1944C21.1841 11.0677 20.8614 11.0018 20.5352 11.0002Z" stroke="#383838" stroke-width="1.4" stroke-linecap="round" stroke-linejoin="round"/>
<path d="M3.53516 15.0002C3.03927 14.9933 2.55252 15.1339 2.1368 15.4044C1.72108 15.6748 1.39518 16.0627 1.20056 16.5189C1.00593 16.975 0.951374 17.4788 1.04382 17.966C1.13627 18.4533 1.37155 18.902 1.71973 19.2552C2.06791 19.6083 2.51326 19.85 2.99913 19.9493C3.48501 20.0487 3.98946 20.0013 4.44832 19.8131C4.90718 19.625 5.29972 19.3046 5.576 18.8928C5.85229 18.4809 5.99984 17.9962 5.99989 17.5002C6.00298 17.174 5.9416 16.8504 5.81927 16.548C5.69694 16.2456 5.51606 15.9703 5.28703 15.738C5.05801 15.5057 4.78534 15.321 4.4847 15.1944C4.18406 15.0677 3.86137 15.0018 3.53516 15.0002V15.0002Z" stroke="#383838" stroke-width="1.4" stroke-linecap="round" stroke-linejoin="round"/>
</svg>
