<svg width="22" height="23" viewBox="0 0 22 23" fill="none" xmlns="http://www.w3.org/2000/svg">
<path fill-rule="evenodd" clip-rule="evenodd" d="M22 11.1738C22 11.3659 21.9951 11.5568 21.9853 11.7465C21.6874 17.5555 16.883 22.1738 11 22.1738C4.92487 22.1738 0 17.249 0 11.1738C0 5.0987 4.92487 0.173828 11 0.173828C17.0751 0.173828 22 5.0987 22 11.1738ZM7.78119 20.0083C7.50353 19.6319 7.23828 19.2155 6.99058 18.7665C6.58536 18.032 6.21958 17.1969 5.92042 16.2852C5.79582 16.3458 5.67464 16.407 5.55708 16.4683C4.89648 16.8129 4.35886 17.1573 3.97782 17.4229C5.00239 18.5734 6.30544 19.4704 7.78119 20.0083ZM3.03002 16.1601C3.45905 15.8586 4.07081 15.4638 4.82719 15.0692C5.0387 14.9589 5.2623 14.8481 5.49709 14.7392C5.24916 13.6209 5.10549 12.4208 5.10549 11.1738C5.10549 9.95875 5.22105 8.81644 5.42456 7.76198C4.38772 7.29073 3.5831 6.74134 2.98901 6.25358C2.10811 7.68478 1.6 9.36996 1.6 11.1738C1.6 13.0055 2.1239 14.7148 3.03002 16.1601ZM3.92727 4.98199C4.38235 5.36314 5.00284 5.80298 5.80731 6.19769C6.12568 5.13381 6.53458 4.18753 6.99637 3.37941C7.19805 3.02646 7.41132 2.69727 7.63349 2.39463C6.19428 2.94686 4.92537 3.84281 3.92727 4.98199ZM18.0222 17.4229C17.0319 18.5349 15.7815 19.4101 14.3665 19.953C14.5887 19.6504 14.802 19.3212 15.0036 18.9683C15.4413 18.2024 15.8315 17.3124 16.142 16.3158C16.2448 16.3664 16.3451 16.4173 16.4429 16.4683C17.1035 16.8129 17.6411 17.1573 18.0222 17.4229ZM18.97 16.1601C18.5409 15.8586 17.9292 15.4638 17.1728 15.0692C16.9729 14.9649 16.7622 14.8603 16.5414 14.7572C16.766 13.6554 16.8945 12.4551 16.8945 11.1738C16.8945 9.90358 16.7682 8.71287 16.5472 7.61891C16.7896 7.50605 17.0197 7.39107 17.2366 7.27639C17.9703 6.88835 18.5602 6.49985 18.9772 6.19913C19.8789 7.64196 20.4 9.34704 20.4 11.1738C20.4 13.0055 19.8761 14.7148 18.97 16.1601ZM18.0316 4.9354C17.6645 5.1988 17.1446 5.53987 16.4988 5.8814C16.3863 5.94091 16.2702 6.00032 16.1505 6.05925C15.8386 5.05158 15.4453 4.15231 15.0036 3.37941C14.802 3.02646 14.5887 2.69727 14.3665 2.39463C15.786 2.93931 17.0399 3.81838 18.0316 4.9354ZM9.84584 2.30292C9.97432 2.19586 10.0963 2.10736 10.211 2.03498V7.29978C9.09273 7.2374 8.11932 7.04527 7.28008 6.78307C7.57063 5.7756 7.94772 4.89522 8.3665 4.16234C8.84159 3.33095 9.35934 2.70834 9.84584 2.30292ZM6.92539 8.32538C7.8763 8.61244 8.96828 8.81811 10.211 8.8801V13.4758C9.04292 13.5573 7.95407 13.8117 6.98343 14.1421C6.79324 13.2069 6.68354 12.2091 6.68354 11.1738C6.68354 10.159 6.77133 9.20628 6.92539 8.32538ZM11.789 8.87345V13.4758C12.9709 13.5583 14.0717 13.8178 15.051 14.1538C15.2197 13.2365 15.3165 12.2394 15.3165 11.1738C15.3165 10.117 15.2212 9.12747 15.0551 8.21631C14.0821 8.54389 12.983 8.79456 11.789 8.87345ZM7.38133 15.6741C8.24068 15.3729 9.19573 15.1404 10.211 15.0583V20.269C10.1042 20.1935 9.99014 20.1024 9.86945 19.9934C9.37582 19.5478 8.85214 18.8739 8.37229 18.0042C7.99689 17.3237 7.65653 16.5383 7.38133 15.6741ZM11.789 15.0583C12.829 15.1424 13.8058 15.3843 14.6812 15.6963C14.3962 16.6489 14.0339 17.4845 13.6335 18.1853C13.1584 19.0167 12.6407 19.6393 12.1542 20.0447C12.0257 20.1518 11.9037 20.2403 11.789 20.3127V15.0583ZM11.789 7.2914C12.8446 7.2111 13.8207 6.97713 14.688 6.67397C14.402 5.71195 14.0371 4.86864 13.6335 4.16234C13.1584 3.33095 12.6407 2.70834 12.1542 2.30292C12.0257 2.19586 11.9037 2.10737 11.789 2.03498V7.2914Z" fill="#383838"/>
</svg>
