<svg width="20" height="21" viewBox="0 0 20 21" fill="none" xmlns="http://www.w3.org/2000/svg">
<path d="M10 13.1039C11.5342 13.1039 12.7778 11.8603 12.7778 10.3262C12.7778 8.79205 11.5342 7.5484 10 7.5484C8.46582 7.5484 7.22217 8.79205 7.22217 10.3262C7.22217 11.8603 8.46582 13.1039 10 13.1039Z" fill="white"/>
<path fill-rule="evenodd" clip-rule="evenodd" d="M6 1.32617C3.23858 1.32617 1 3.56475 1 6.32617V14.3262C1 17.0876 3.23858 19.3262 6 19.3262H14C16.7614 19.3262 19 17.0876 19 14.3262V6.32617C19 3.56475 16.7614 1.32617 14 1.32617H6ZM16 4.32617C16 4.87846 15.5522 5.32617 15 5.32617C14.4478 5.32617 14 4.87846 14 4.32617C14 3.77388 14.4478 3.32617 15 3.32617C15.5522 3.32617 16 3.77388 16 4.32617ZM10 15.3262C12.7612 15.3262 15 13.0876 15 10.3262C15 7.56474 12.7612 5.32617 10 5.32617C7.23877 5.32617 5 7.56474 5 10.3262C5 13.0876 7.23877 15.3262 10 15.3262Z" fill="white"/>
</svg>
