<svg width="20" height="20" viewBox="0 0 20 20" fill="none" xmlns="http://www.w3.org/2000/svg">
<path fill-rule="evenodd" clip-rule="evenodd" d="M13.1569 4.53943C13.0549 4.21104 13 3.86194 13 3.5C13 1.567 14.567 0 16.5 0C18.433 0 20 1.567 20 3.5C20 5.433 18.433 7 16.5 7C15.3946 7 14.4089 6.48755 13.7674 5.68725L6.77796 9.27053C6.9215 9.65304 7 10.0674 7 10.5C7 10.8123 6.9591 11.115 6.88237 11.4031L13.582 14.5666C14.2089 13.6224 15.2818 13 16.5 13C18.433 13 20 14.567 20 16.5C20 18.433 18.433 20 16.5 20C14.567 20 13 18.433 13 16.5C13 16.2493 13.0263 16.0048 13.0764 15.7691L6.31698 12.5775C5.67955 13.4404 4.65512 14 3.5 14C1.567 14 0 12.433 0 10.5C0 8.567 1.567 7 3.5 7C4.53199 7 5.45966 7.44664 6.10025 8.15716L13.1569 4.53943ZM18.7 3.5C18.7 4.71503 17.715 5.7 16.5 5.7C15.285 5.7 14.3 4.71503 14.3 3.5C14.3 2.28497 15.285 1.3 16.5 1.3C17.715 1.3 18.7 2.28497 18.7 3.5ZM5.63781 11.0215L5.37951 11.644C4.99326 12.2773 4.296 12.7 3.5 12.7C2.28497 12.7 1.3 11.715 1.3 10.5C1.3 9.28497 2.28497 8.3 3.5 8.3C4.71503 8.3 5.7 9.28497 5.7 10.5C5.7 10.6797 5.67846 10.8543 5.63781 11.0215ZM16.5 18.7C17.715 18.7 18.7 17.715 18.7 16.5C18.7 15.285 17.715 14.3 16.5 14.3C15.285 14.3 14.3 15.285 14.3 16.5C14.3 17.715 15.285 18.7 16.5 18.7Z" fill="black"/>
</svg>
