<svg width="20" height="21" viewBox="0 0 20 21" fill="none" xmlns="http://www.w3.org/2000/svg">
<g clip-path="url(#clip0_431_13142)">
<path d="M20.025 4.50039C19.2859 4.82852 18.4938 5.04883 17.6609 5.14883C18.5109 4.63945 19.1641 3.8332 19.4703 2.87383C18.6766 3.34414 17.7938 3.68633 16.8578 3.8707C16.1078 3.0707 15.0391 2.57227 13.8563 2.57227C11.5844 2.57227 9.74219 4.41289 9.74219 6.68477C9.74219 7.00664 9.77969 7.3207 9.85 7.62227C6.43125 7.45039 3.40156 5.81289 1.37188 3.32383C1.01719 3.9332 0.815625 4.63945 0.815625 5.39258C0.815625 6.81914 1.54063 8.07852 2.64531 8.81758C1.97031 8.7957 1.33594 8.60977 0.78125 8.30195C0.78125 8.31914 0.78125 8.33633 0.78125 8.35352C0.78125 10.3473 2.2 12.0082 4.07969 12.3879C3.73594 12.4816 3.37188 12.5316 2.99688 12.5316C2.73125 12.5316 2.47344 12.5066 2.22188 12.4566C2.74688 14.0895 4.26563 15.2816 6.06406 15.3145C4.65781 16.4176 2.88438 17.0738 0.95625 17.0738C0.623438 17.0738 0.296875 17.0551 -0.0234375 17.016C1.79531 18.1848 3.95781 18.8645 6.28125 18.8645C13.8469 18.8645 17.9844 12.5973 17.9844 7.16289C17.9844 6.98477 17.9797 6.80508 17.9734 6.63008C18.7766 6.05039 19.4734 5.32539 20.025 4.50039Z" fill="white"/>
</g>
<defs>
<clipPath id="clip0_431_13142">
<rect width="20" height="20" fill="white" transform="translate(0 0.326172)"/>
</clipPath>
</defs>
</svg>
