<svg width="24" height="24" viewBox="0 0 24 24" fill="none" xmlns="http://www.w3.org/2000/svg">
<g clip-path="url(#clip0_431_10160)">
<path d="M12 7.93961C10.9403 7.93961 9.92791 8.37196 9.18439 9.13531C8.44147 9.89804 8.02727 10.9287 8.02727 11.9996C8.02727 13.0705 8.44147 14.1012 9.18439 14.8639C9.92791 15.6273 10.9403 16.0596 12 16.0596C13.0597 16.0596 14.0721 15.6273 14.8156 14.8639C15.5585 14.1012 15.9727 13.0705 15.9727 11.9996C15.9727 10.9287 15.5585 9.89804 14.8156 9.13531C14.0721 8.37196 13.0597 7.93961 12 7.93961ZM10.1873 10.1121C10.6713 9.61526 11.3237 9.33961 12 9.33961C12.6763 9.33961 13.3287 9.61526 13.8127 10.1121C14.2973 10.6097 14.5727 11.2883 14.5727 11.9996C14.5727 12.7109 14.2973 13.3896 13.8127 13.8871C13.3287 14.384 12.6763 14.6596 12 14.6596C11.3237 14.6596 10.6713 14.384 10.1873 13.8871C9.70268 13.3896 9.42727 12.7109 9.42727 11.9996C9.42727 11.2883 9.70268 10.6097 10.1873 10.1121ZM0.752859 11.9996C2.60333 7.46813 6.94754 4.29961 12 4.29961C17.0525 4.29961 21.3967 7.46814 23.2471 11.9996C21.3967 16.5311 17.0525 19.6996 12 19.6996C6.94754 19.6996 2.60333 16.5311 0.752859 11.9996Z" stroke="#B4B4BF" stroke-width="1.4"/>
</g>
<defs>
<clipPath id="clip0_431_10160">
<rect width="24" height="24" fill="white"/>
</clipPath>
</defs>
</svg>
