<svg width="20" height="21" viewBox="0 0 20 21" fill="none" xmlns="http://www.w3.org/2000/svg">
<path d="M19.8922 15.083C19.0754 13.6462 16.9713 11.9196 16.1027 11.1683C15.865 10.9626 15.8395 10.6067 16.0559 10.3793C17.7136 8.63807 19.0395 6.6374 19.4958 5.42847C19.6972 4.89443 19.2804 4.33017 18.6931 4.33017H16.9872C16.425 4.33017 16.0959 4.52744 15.9391 4.84156C14.5614 7.60108 13.3795 8.79535 12.5523 9.49334C12.0891 9.88432 11.3668 9.56043 11.3668 8.96551C11.3668 7.81923 11.3668 6.3375 11.3668 5.28674C11.3668 4.77713 10.9405 4.36483 10.4146 4.36483L7.29826 4.33017C6.90599 4.33017 6.68191 4.76425 6.91736 5.06859L7.4319 5.79057C7.62553 6.04071 7.73007 6.34505 7.73007 6.6574L7.72735 9.90876C7.72735 10.4743 7.02599 10.7507 6.60963 10.3544C5.20102 9.0135 3.97876 6.2753 3.53876 4.96596C3.41149 4.58697 3.04832 4.33106 2.6365 4.33017L0.956068 4.32617C0.325622 4.32617 -0.135282 4.91042 0.0360796 5.49867C1.57152 10.7667 4.72193 15.7784 10.3364 16.3217C10.8896 16.375 11.3668 15.9396 11.3668 15.4007V13.6919C11.3668 13.2019 11.76 12.7807 12.2655 12.7682C12.2832 12.7678 12.3009 12.7678 12.3187 12.7678C13.8036 12.7678 15.4668 14.8804 16.0486 15.8685C16.2159 16.1529 16.5286 16.3262 16.8668 16.3262H19.1272C19.7867 16.3262 20.2099 15.6424 19.8922 15.083Z" fill="white"/>
</svg>
