<svg width="20" height="21" viewBox="0 0 20 21" fill="none" xmlns="http://www.w3.org/2000/svg">
<path d="M19.4696 5.73242C19.294 4.77026 18.4571 4.06958 17.486 3.85083C16.0326 3.54492 13.3429 3.32617 10.4328 3.32617C7.52447 3.32617 4.79173 3.54492 3.33669 3.85083C2.36723 4.06958 1.52864 4.72583 1.353 5.73242C1.17564 6.82617 1 8.35742 1 10.3262C1 12.2949 1.17564 13.8262 1.39605 14.9199C1.57341 15.8821 2.41028 16.5828 3.37974 16.8015C4.9226 17.1074 7.56752 17.3262 10.4776 17.3262C13.3877 17.3262 16.0326 17.1074 17.5755 16.8015C18.545 16.5828 19.3818 15.9265 19.5592 14.9199C19.7348 13.8262 19.9552 12.2505 20 10.3262C19.9105 8.35742 19.6901 6.82617 19.4696 5.73242ZM8.05311 13.3887V7.26367L13.4308 10.3262L8.05311 13.3887Z" fill="white"/>
</svg>
