<svg width="26" height="26" viewBox="0 0 26 26" fill="none" xmlns="http://www.w3.org/2000/svg">
<g clip-path="url(#clip0_917_19087)">
<path d="M1 1H25V25H1V1Z" fill="#CC0001"/>
<path d="M1 23.2891H25V25H1V23.2891Z" fill="white"/>
<path d="M1 19.8633H25V21.5742H1V19.8633Z" fill="white"/>
<path d="M1 16.4316H25V18.1426H1V16.4316Z" fill="white"/>
<path d="M1 13.0039H25V14.7148H1V13.0039Z" fill="white"/>
<path d="M1 9.57422H25V11.2852H1V9.57422Z" fill="white"/>
<path d="M1 6.14648H25V7.85742H1V6.14648Z" fill="white"/>
<path d="M1 2.71484H25V4.42578H1V2.71484Z" fill="white"/>
<path d="M1 1H16V14.7156H1V1Z" fill="#010066"/>
<path d="M6.80308 3.4336C6.23021 3.43237 5.6627 3.54407 5.13302 3.7623C4.60334 3.98053 4.12187 4.30103 3.71613 4.70546C3.3104 5.10989 2.98835 5.59033 2.76841 6.1193C2.54847 6.64828 2.43495 7.21541 2.43433 7.78829C2.43319 8.57365 2.64423 9.34473 3.04514 10.02C3.44606 10.6954 4.02197 11.2498 4.712 11.6249C5.40203 11.9999 6.18055 12.1815 6.9653 12.1506C7.75005 12.1197 8.51188 11.8774 9.17027 11.4492C8.76304 11.5894 8.33531 11.6606 7.90464 11.6602C7.3968 11.6614 6.89368 11.5626 6.42402 11.3694C5.95436 11.1762 5.52735 10.8924 5.16738 10.5341C4.80741 10.1759 4.52152 9.75027 4.32604 9.28155C4.13056 8.81283 4.02931 8.3102 4.02808 7.80235C4.02808 5.66954 5.76246 3.93985 7.89996 3.93985C8.35874 3.93766 8.81426 4.01702 9.24527 4.17423C8.52543 3.69271 7.67849 3.43651 6.81246 3.43829L6.80308 3.4336Z" fill="#FFCC00"/>
<path d="M14.05 10.057L12.2032 9.09609L12.7469 11.0602L11.5188 9.41953L11.1344 11.4164L10.7594 9.41484L9.51724 11.0555L10.0704 9.09141L8.22817 10.0477L9.59692 8.51016L7.51099 8.58984L9.42817 7.78828L7.51099 6.97734L9.59692 7.06172L8.23755 5.51953L10.075 6.48047L9.5313 4.51641L10.7594 6.15703L11.1438 4.16016L11.5188 6.16172L12.7657 4.51641L12.2125 6.48516L14.0547 5.52891L12.686 7.06641L14.7719 6.98672L12.8547 7.79297L14.7719 8.59922L12.686 8.51484L14.05 10.057Z" fill="#FFCC00"/>
</g>
<rect x="0.5" y="0.5" width="25" height="25" rx="12.5" stroke="#B4B4BF"/>
<defs>
<clipPath id="clip0_917_19087">
<rect x="1" y="1" width="24" height="24" rx="12" fill="white"/>
</clipPath>
</defs>
</svg>
