<svg width="26" height="26" viewBox="0 0 26 26" fill="none" xmlns="http://www.w3.org/2000/svg">
<g clip-path="url(#clip0_919_19109)">
<path d="M10.6 1H25V25H10.5954L10.6 1Z" fill="#FF0000"/>
<path d="M1.00005 1H10.6V25H0.995361L1.00005 1Z" fill="#006600"/>
<path fill-rule="evenodd" clip-rule="evenodd" d="M14.7719 16.3094C13.1594 16.2625 5.77192 11.65 5.72505 10.9141L6.12817 10.2344C6.85942 11.2984 14.4157 15.7844 15.1563 15.625L14.7719 16.3094Z" fill="#FFFF00"/>
<path fill-rule="evenodd" clip-rule="evenodd" d="M6.0438 10.1406C5.89849 10.5297 7.97036 11.8094 10.4641 13.3281C12.9579 14.8422 15.1047 15.7797 15.2688 15.6484L15.3391 15.5125C15.311 15.5594 15.236 15.5734 15.1235 15.5406C14.4485 15.3438 12.6907 14.5375 10.5157 13.2203C8.34067 11.9031 6.44692 10.6844 6.1563 10.1688C6.13235 10.1208 6.12105 10.0676 6.12349 10.0141H6.11411L6.05317 10.1219L6.0438 10.1406ZM14.8094 16.3281C14.7813 16.3797 14.7297 16.3797 14.636 16.375C14.0313 16.3047 12.1985 15.4141 10.0422 14.1203C7.52036 12.6109 5.43911 11.2375 5.6688 10.8813L5.72974 10.7687L5.73911 10.7734C5.53755 11.3828 9.84536 13.8438 10.0985 14.0031C12.5875 15.55 14.6922 16.45 14.8797 16.2156L14.8094 16.3281Z" fill="#FFFF00"/>
<path fill-rule="evenodd" clip-rule="evenodd" d="M10.6094 11.3594C12.2172 11.3453 14.2094 11.1391 15.3532 10.6844L15.1094 10.2812C14.4297 10.6562 12.4329 10.9047 10.5954 10.9375C8.42036 10.9187 6.88755 10.7172 6.1188 10.2016L5.88442 10.6281C7.30005 11.2234 8.7438 11.3547 10.6094 11.3594Z" fill="#FFFF00"/>
<path fill-rule="evenodd" clip-rule="evenodd" d="M15.4235 10.6938C15.3813 10.7547 14.636 11.0125 13.5344 11.2C12.5631 11.3457 11.5822 11.4178 10.6 11.4156C9.6596 11.4198 8.71995 11.3603 7.78755 11.2375C6.63911 11.0547 6.03911 10.8016 5.8188 10.7125L5.87505 10.6047C6.4984 10.8504 7.14801 11.0234 7.81099 11.1203C8.73567 11.2413 9.66751 11.2992 10.6 11.2938C11.5744 11.2944 12.5474 11.2223 13.511 11.0781C14.636 10.8953 15.2547 10.6609 15.3391 10.5531L15.4235 10.6938ZM15.2032 10.2812C15.0813 10.375 14.4719 10.5953 13.4032 10.7641C12.4794 10.8967 11.5473 10.9625 10.6141 10.9609C9.71424 10.9678 8.81504 10.9098 7.92349 10.7875C6.8313 10.6469 6.25474 10.3891 6.04849 10.3141L6.10942 10.2062C6.2688 10.2906 6.8313 10.5156 7.93755 10.675C8.82501 10.79 9.71924 10.8448 10.6141 10.8391C11.5395 10.8403 12.4638 10.7745 13.3797 10.6422C14.4579 10.4922 15.0391 10.2203 15.1282 10.15L15.2032 10.2812ZM5.31255 13.3C6.3063 13.8344 8.50474 14.1062 10.5907 14.125C12.4891 14.125 14.9641 13.8297 15.8875 13.3375L15.8594 12.8031C15.5735 13.2578 12.925 13.6937 10.5719 13.675C8.2188 13.6562 6.03442 13.2906 5.30786 12.8219V13.3" fill="#FFFF00"/>
<path fill-rule="evenodd" clip-rule="evenodd" d="M15.9391 13.225V13.3516C15.7985 13.5203 14.9266 13.7734 13.8344 13.9469C12.7526 14.104 11.6604 14.1792 10.5672 14.1719C9.28286 14.1719 8.26099 14.0781 7.46411 13.9562C6.69952 13.8694 5.95221 13.6687 5.24692 13.3609V13.2109C5.73442 13.5344 7.04224 13.7687 7.48286 13.8391C8.27036 13.9609 9.28755 14.05 10.5672 14.05C11.9125 14.05 12.9907 13.9563 13.8157 13.8297C14.6032 13.7172 15.7188 13.4219 15.9391 13.225ZM15.9391 12.7703V12.9016C15.7985 13.0656 14.9266 13.3188 13.8344 13.4922C12.7526 13.6493 11.6604 13.7245 10.5672 13.7172C9.28286 13.7172 8.26099 13.6234 7.4688 13.5062C6.7024 13.4182 5.95348 13.2159 5.24692 12.9062V12.7563C5.73442 13.0797 7.04224 13.3188 7.48286 13.3844C8.27505 13.5063 9.29224 13.6 10.5672 13.6C11.9125 13.6 12.9907 13.5063 13.8157 13.375C14.6032 13.2625 15.7188 12.9672 15.9391 12.7703ZM10.586 16.2156C8.30786 16.2016 6.35317 15.5969 5.94067 15.4938L6.24067 15.9625C6.96724 16.2719 8.87505 16.7312 10.6094 16.6797C12.3438 16.6281 13.8579 16.4922 14.9219 15.9766L15.2313 15.4844C14.5047 15.8266 12.0297 16.2156 10.5907 16.2156" fill="#FFFF00"/>
<path fill-rule="evenodd" clip-rule="evenodd" d="M15.0391 15.8641C14.9934 15.9336 14.9466 16.0024 14.8985 16.0703C14.3666 16.2468 13.8231 16.3862 13.2719 16.4875C12.3875 16.6502 11.49 16.7318 10.5907 16.7313C8.57036 16.7031 6.91567 16.3094 6.13755 15.9719L6.07192 15.8641L6.08599 15.8453L6.18911 15.8875C7.61232 16.3591 9.10077 16.6043 10.6 16.6141C11.5375 16.6188 12.475 16.5063 13.2297 16.375C14.3922 16.1406 14.861 15.9672 15.0063 15.8875L15.0391 15.8641ZM15.3063 15.4234H15.311C15.277 15.4831 15.2427 15.5424 15.2079 15.6016C14.9407 15.6953 14.2094 15.9109 13.1454 16.0609C12.4422 16.1547 12.0063 16.2484 10.6141 16.2766C9.01898 16.2594 7.43381 16.0228 5.90317 15.5734L5.84692 15.4562C7.40163 15.8829 9.00243 16.119 10.6141 16.1594C11.8891 16.1312 12.4329 16.0375 13.1266 15.9391C14.3688 15.7516 14.9922 15.5453 15.1797 15.4844C15.1783 15.4812 15.1767 15.4781 15.175 15.475L15.3063 15.4234Z" fill="#FFFF00"/>
<path fill-rule="evenodd" clip-rule="evenodd" d="M15.3344 12.8781C15.3438 14.3781 14.575 15.7281 13.9563 16.3234C13.0474 17.2074 11.835 17.7105 10.5672 17.7297C9.05317 17.7578 7.62817 16.7688 7.2438 16.3375C6.4938 15.4891 5.88442 14.4156 5.86567 12.9625C5.95942 11.3219 6.60161 10.1828 7.53442 9.4C8.43706 8.65755 9.57196 8.25602 10.7407 8.26562C11.9313 8.29844 13.3282 8.88438 14.2891 10.0469C14.9172 10.8062 15.1938 11.6313 15.3344 12.8828V12.8781ZM10.5813 7.74063C13.4875 7.74063 15.8782 10.1078 15.8782 13.0047C15.8695 14.4038 15.3076 15.7427 14.3152 16.729C13.3228 17.7152 11.9805 18.2688 10.5813 18.2687C7.67505 18.2687 5.30317 15.9062 5.30317 13.0047C5.30317 10.1031 7.67505 7.74063 10.5813 7.74063Z" fill="#FFFF00"/>
<path fill-rule="evenodd" clip-rule="evenodd" d="M10.5954 7.72187C13.5016 7.72187 15.8735 10.0984 15.8735 13.0047C15.8735 15.9109 13.5016 18.2875 10.5954 18.2875C9.1946 18.2838 7.85235 17.7254 6.8623 16.7344C5.87225 15.7435 5.31502 14.4008 5.31255 13C5.31626 11.6001 5.87403 10.2585 6.86395 9.26859C7.85386 8.27867 9.19541 7.7209 10.5954 7.71719V7.72187ZM5.42974 13.0047C5.42974 15.8453 7.76411 18.1703 10.5954 18.1703C13.4266 18.1703 15.7563 15.8453 15.7563 13.0047C15.7563 10.1641 13.4266 7.84375 10.5954 7.84375C9.22768 7.84868 7.91736 8.39386 6.94982 9.36052C5.98228 10.3272 5.43591 11.637 5.42974 13.0047Z" fill="#FFFF00"/>
<path fill-rule="evenodd" clip-rule="evenodd" d="M10.6 8.1625C13.2485 8.1625 15.4329 10.3422 15.4329 13C15.4329 15.6625 13.2485 17.8375 10.6 17.8375C9.31777 17.8338 8.089 17.3231 7.18185 16.4168C6.2747 15.5105 5.76281 14.2823 5.75786 13C5.75786 10.3422 7.94224 8.1625 10.5954 8.1625H10.6ZM5.87505 13C5.87505 15.5969 8.00786 17.7203 10.6 17.7203C13.1875 17.7203 15.3204 15.5969 15.3204 13C15.3204 10.4031 13.1875 8.27969 10.5954 8.27969C8.00317 8.27969 5.87505 10.4031 5.87505 13Z" fill="#FFFF00"/>
<path fill-rule="evenodd" clip-rule="evenodd" d="M10.811 7.70312H10.3563V18.3156H10.811V7.70312Z" fill="#FFFF00"/>
<path fill-rule="evenodd" clip-rule="evenodd" d="M10.7641 7.64219H10.8813V18.3766H10.7641V7.64219ZM10.3141 7.64219H10.4313V18.3766H10.3141V7.64219Z" fill="#FFFF00"/>
<path fill-rule="evenodd" clip-rule="evenodd" d="M15.8782 13.2109V12.8125L15.5594 12.5172L13.7454 12.0344L11.1297 11.7672L7.98911 11.9266L5.7438 12.4609L5.2938 12.7984V13.1875L6.43755 12.6719L9.1563 12.25H11.7719L13.6938 12.4609L15.025 12.7844L15.8782 13.2109Z" fill="#FFFF00"/>
<path fill-rule="evenodd" clip-rule="evenodd" d="M10.5954 12.1891C11.7414 12.1844 12.8854 12.2864 14.0125 12.4937C15.0016 12.6906 15.7 12.9391 15.9344 13.2156V13.3563C15.6532 13.0094 14.7157 12.7563 13.9891 12.6063C13.0375 12.4234 11.8329 12.3062 10.5954 12.3062C9.28286 12.3062 8.06411 12.4328 7.12661 12.6156C6.37661 12.7656 5.37349 13.0609 5.24692 13.3563V13.2156C5.31724 13.0094 6.06255 12.7047 7.11255 12.4937C8.26164 12.2853 9.42752 12.1833 10.5954 12.1891ZM10.5954 11.7344C11.743 11.7299 12.8885 11.8319 14.0172 12.0391C15.0016 12.2359 15.7047 12.4844 15.9391 12.7656V12.9016C15.6532 12.5547 14.711 12.3016 13.9891 12.1562C13.0375 11.9688 11.8329 11.8516 10.5954 11.8516C9.43517 11.848 8.27713 11.9515 7.13599 12.1609C6.40942 12.3016 5.36411 12.6109 5.24692 12.9016V12.7609C5.31724 12.5594 6.0813 12.2453 7.11255 12.0438C8.2615 11.8337 9.42738 11.7301 10.5954 11.7344ZM10.5719 9.42344C12.536 9.41406 14.2516 9.7 15.0344 10.1031L15.3204 10.5953C14.6407 10.2297 12.7891 9.84531 10.5719 9.90625C8.76724 9.91562 6.84067 10.1031 5.87036 10.6187L6.21255 10.0469C7.00942 9.63437 8.88442 9.42812 10.5719 9.42344Z" fill="#FFFF00"/>
<path fill-rule="evenodd" clip-rule="evenodd" d="M10.5954 9.83125C11.7204 9.83125 12.7985 9.89219 13.661 10.0469C14.4625 10.1969 15.2313 10.4219 15.3391 10.5438L15.4235 10.6938C15.1563 10.5203 14.4954 10.3234 13.6422 10.1641C12.6349 10.0036 11.6152 9.93301 10.5954 9.95312C9.32974 9.95312 8.34536 10.0141 7.50161 10.1641C6.61099 10.3281 5.99224 10.5672 5.83755 10.6797L5.92192 10.525C6.21724 10.3703 6.69067 10.1875 7.48286 10.0469C8.35474 9.8875 9.3438 9.84062 10.5954 9.83125ZM10.5954 9.38125C11.5854 9.36567 12.5749 9.43467 13.5532 9.5875C14.2047 9.71406 14.8469 9.91094 15.086 10.0844L15.2079 10.2812C14.9969 10.0469 14.2047 9.82656 13.5016 9.70469C12.686 9.56406 11.6688 9.50781 10.5954 9.49844C9.47036 9.49844 8.42974 9.56875 7.62349 9.71406C6.85474 9.86406 6.35786 10.0375 6.14692 10.1734L6.25474 10.0047C6.54536 9.85469 7.01411 9.71406 7.60474 9.59687C8.41567 9.45156 9.46567 9.38125 10.5954 9.38125ZM13.2204 15.1984C12.3537 15.049 11.4746 14.9831 10.5954 15.0016C7.3188 15.0391 6.26411 15.6719 6.13286 15.8641L5.88911 15.4656C6.7188 14.8609 8.50005 14.5234 10.6094 14.5563C11.7016 14.575 12.6438 14.65 13.4407 14.8L13.2157 15.1984" fill="#FFFF00"/>
<path fill-rule="evenodd" clip-rule="evenodd" d="M10.5766 14.9453C11.486 14.9594 12.3813 14.9922 13.2485 15.1562L13.1829 15.2687C12.3239 15.1204 11.4529 15.0529 10.5813 15.0672C9.37192 15.0578 8.1438 15.1703 7.08442 15.475C6.74692 15.5687 6.1938 15.7844 6.13286 15.9625L6.07192 15.8594C6.09067 15.7563 6.42817 15.5359 7.0563 15.3625C8.27505 15.0109 9.41411 14.9547 10.5719 14.9406L10.5766 14.9453ZM10.6188 14.4859C11.5789 14.485 12.5373 14.5682 13.4829 14.7344L13.4172 14.8516C12.4957 14.683 11.5603 14.6014 10.6235 14.6078C9.40942 14.6078 8.12505 14.6969 6.95317 15.0344C6.57817 15.1469 5.92192 15.3812 5.90317 15.5687L5.84224 15.4609C5.8563 15.2922 6.4188 15.0672 6.92974 14.9172C8.13334 14.6024 9.37503 14.4572 10.6188 14.4859Z" fill="#FFFF00"/>
<path fill-rule="evenodd" clip-rule="evenodd" d="M15.2688 15.5266L14.875 16.1359L13.7454 15.1328L10.811 13.1641L7.5063 11.3453L5.78599 10.7594L6.15161 10.0797L6.27817 10.0141L7.34692 10.2812L10.8625 12.0953L12.8922 13.375L14.5938 14.5938L15.2875 15.3953L15.2688 15.5266Z" fill="#FFFF00"/>
<path fill-rule="evenodd" clip-rule="evenodd" d="M5.72505 10.7734C6.02974 10.5719 8.24224 11.5562 10.5532 12.9531C12.8641 14.3547 15.0719 15.9344 14.875 16.2344L14.8094 16.3328L14.7766 16.3563C14.786 16.3563 14.8188 16.3094 14.7766 16.2016C14.6735 15.8781 13.1125 14.6312 10.511 13.0609C7.97974 11.5516 5.87036 10.6422 5.65942 10.9047L5.72505 10.7734ZM15.3485 15.5172C15.536 15.1422 13.4875 13.5953 10.9422 12.0906C8.34067 10.6141 6.46099 9.74688 6.1188 10.0047L6.0438 10.1453C6.0438 10.15 6.0438 10.1359 6.06255 10.1219C6.12349 10.0703 6.22661 10.075 6.27349 10.075C6.86411 10.0797 8.55161 10.8531 10.9141 12.2125C11.95 12.8125 15.2922 14.9594 15.2782 15.5594C15.2782 15.6109 15.2829 15.6203 15.2641 15.6484L15.3485 15.5172Z" fill="#FFFF00"/>
<path d="M7.43051 13.5846C7.4313 13.9986 7.51419 14.4083 7.6744 14.7901C7.83461 15.1718 8.06894 15.518 8.36384 15.8086C8.65514 16.1044 9.0021 16.3396 9.38471 16.5007C9.76732 16.6618 10.178 16.7456 10.5932 16.7473C11.4334 16.7472 12.2391 16.4134 12.8332 15.8193C13.127 15.5271 13.3603 15.1797 13.5195 14.7972C13.6788 14.4146 13.7609 14.0043 13.7612 13.5899V9.36593L7.43051 9.35526V13.5846Z" fill="white"/>
<path d="M7.54784 13.5899C7.54896 13.9871 7.62872 14.3801 7.7825 14.7462C7.93629 15.1124 8.16106 15.4444 8.44384 15.7233C9.01166 16.2941 9.78272 16.6163 10.5878 16.6193C11.3916 16.6197 12.1626 16.3013 12.7318 15.7339C13.0137 15.4547 13.2375 15.1224 13.3903 14.7563C13.5432 14.3901 13.6221 13.9974 13.6225 13.6006V9.49393H7.55851V13.5899M12.4118 10.7259V13.3339L12.4065 13.6059C12.4083 13.8442 12.362 14.0804 12.2704 14.3003C12.1787 14.5203 12.0436 14.7194 11.8732 14.8859C11.534 15.2263 11.0737 15.4181 10.5932 15.4193C10.0918 15.4193 9.64918 15.2059 9.31851 14.8753C8.97817 14.5361 8.78635 14.0757 8.78517 13.5953V10.7153L12.4118 10.7259Z" fill="#FF0000"/>
<path d="M7.94251 10.5659C7.94784 10.2726 8.15584 10.2033 8.15584 10.2033C8.16117 10.2033 8.38517 10.2779 8.38517 10.5713H7.94251" fill="#FFFF00"/>
<path d="M7.76117 10.2086L7.72384 10.5446H7.94784C7.94784 10.2673 8.16117 10.2246 8.16117 10.2246C8.16651 10.2246 8.37451 10.2833 8.37984 10.5446H8.60384L8.56117 10.2033H7.76117V10.2086ZM7.70784 10.5499H8.61451C8.63051 10.5499 8.64651 10.5659 8.64651 10.5873C8.64651 10.6139 8.63051 10.6299 8.61451 10.6299H7.70784C7.69184 10.6299 7.67584 10.6139 7.67584 10.5873C7.67584 10.5659 7.69184 10.5499 7.71317 10.5499H7.70784Z" fill="#FFFF00"/>
<path d="M8.03851 10.5446C8.03851 10.3686 8.16117 10.3206 8.16117 10.3206C8.16117 10.3206 8.28384 10.3739 8.28384 10.5446H8.03851ZM7.72917 10.0646H8.59851C8.61451 10.0646 8.63051 10.0859 8.63051 10.1073C8.63051 10.1233 8.61451 10.1393 8.59851 10.1393H7.72917C7.71317 10.1393 7.69717 10.1233 7.69717 10.1019C7.69717 10.0859 7.71317 10.0699 7.72917 10.0699V10.0646ZM8.57184 10.1446C8.58784 10.1446 8.60384 10.1606 8.60384 10.1819C8.60384 10.2033 8.58784 10.2193 8.57184 10.2193H7.74517C7.72384 10.2193 7.71317 10.2033 7.71317 10.1819C7.71317 10.1606 7.72384 10.1446 7.74517 10.1446H8.57184ZM8.01717 9.57926H8.08117V9.62193H8.12917V9.57926H8.19851V9.62726H8.24651V9.57393H8.31051V9.6806C8.31051 9.70193 8.29984 9.7126 8.28384 9.7126H8.04917C8.03317 9.7126 8.01717 9.70193 8.01717 9.68593V9.57926ZM8.26251 9.72326L8.27851 10.0646H8.04917L8.06517 9.71793H8.26251" fill="#FFFF00"/>
<path d="M7.98517 9.88326V10.0646H7.77184V9.88326H7.98517Z" fill="#FFFF00"/>
<path d="M8.55051 9.88326V10.0646H8.33717V9.88326H8.55051Z" fill="#FFFF00"/>
<path d="M7.73451 9.7446H7.79851V9.79793H7.84651V9.7446H7.91051V9.79793H7.95851V9.7446H8.02251V9.85126C8.02251 9.8726 8.01184 9.88326 7.99584 9.88326H7.76651C7.75802 9.88326 7.74988 9.87989 7.74388 9.87389C7.73788 9.86789 7.73451 9.85975 7.73451 9.85126V9.7446Z" fill="#FFFF00"/>
<path d="M8.29984 9.7446H8.36384V9.79793H8.41184V9.7446H8.47584V9.79793H8.52384V9.7446H8.58784V9.85126C8.58784 9.8726 8.57717 9.88326 8.56117 9.88326H8.33184C8.32335 9.88326 8.31521 9.87989 8.30921 9.87389C8.30321 9.86789 8.29984 9.85975 8.29984 9.85126V9.7446Z" fill="#FFFF00"/>
<path d="M8.13984 9.82993C8.13984 9.79793 8.18784 9.79793 8.18784 9.82993V9.91527H8.13984V9.82993Z" fill="black"/>
<path d="M7.85717 9.94727C7.85717 9.91527 7.89984 9.91527 7.89984 9.94727V10.0113H7.85717V9.94727Z" fill="black"/>
<path d="M8.42251 9.94727C8.42251 9.91527 8.46517 9.91527 8.46517 9.94727V10.0113H8.42251V9.94727Z" fill="black"/>
<path d="M7.94251 13.0353C7.94784 12.7419 8.15584 12.6726 8.15584 12.6726C8.16117 12.6726 8.38517 12.7473 8.38517 13.0406H7.94251" fill="#FFFF00"/>
<path d="M7.76117 12.6779L7.72384 13.0139H7.94784C7.94784 12.7366 8.16117 12.6939 8.16117 12.6939C8.16651 12.6939 8.37451 12.7526 8.37984 13.0139H8.60384L8.56117 12.6726H7.76117V12.6779ZM7.70784 13.0193H8.61451C8.63051 13.0193 8.64651 13.0353 8.64651 13.0566C8.64651 13.0833 8.63051 13.0993 8.61451 13.0993H7.70784C7.69184 13.0993 7.67584 13.0833 7.67584 13.0566C7.67584 13.0353 7.69184 13.0193 7.71317 13.0193H7.70784Z" fill="#FFFF00"/>
<path d="M8.03851 13.0139C8.03851 12.8379 8.16117 12.7899 8.16117 12.7899C8.16117 12.7899 8.28384 12.8433 8.28384 13.0139H8.03851ZM7.72917 12.5339H8.59851C8.61451 12.5339 8.63051 12.5553 8.63051 12.5766C8.63051 12.5926 8.61451 12.6086 8.59851 12.6086H7.72917C7.71317 12.6086 7.69717 12.5926 7.69717 12.5713C7.69717 12.5553 7.71317 12.5393 7.72917 12.5393V12.5339ZM8.57184 12.6139C8.58784 12.6139 8.60384 12.6299 8.60384 12.6513C8.60384 12.6726 8.58784 12.6886 8.57184 12.6886H7.74517C7.72384 12.6886 7.71317 12.6726 7.71317 12.6513C7.71317 12.6299 7.72384 12.6139 7.74517 12.6139H8.57184ZM8.01717 12.0486H8.08117V12.0913H8.12917V12.0486H8.19851V12.0966H8.24651V12.0433H8.31051V12.1499C8.31051 12.1713 8.29984 12.1819 8.28384 12.1819H8.04917C8.03317 12.1819 8.01717 12.1713 8.01717 12.1553V12.0486ZM8.26251 12.1926L8.27851 12.5339H8.04917L8.06517 12.1873H8.26251" fill="#FFFF00"/>
<path d="M7.98517 12.3526V12.5339H7.77184V12.3526H7.98517Z" fill="#FFFF00"/>
<path d="M8.55051 12.3526V12.5339H8.33717V12.3526H8.55051Z" fill="#FFFF00"/>
<path d="M7.73451 12.2139H7.79851V12.2673H7.84651V12.2139H7.91051V12.2673H7.95851V12.2139H8.02251V12.3206C8.02251 12.3419 8.01184 12.3526 7.99584 12.3526H7.76651C7.75802 12.3526 7.74988 12.3492 7.74388 12.3432C7.73788 12.3372 7.73451 12.3291 7.73451 12.3206V12.2139Z" fill="#FFFF00"/>
<path d="M8.29984 12.2139H8.36384V12.2673H8.41184V12.2139H8.47584V12.2673H8.52384V12.2139H8.58784V12.3206C8.58784 12.3419 8.57717 12.3526 8.56117 12.3526H8.33184C8.32335 12.3526 8.31521 12.3492 8.30921 12.3432C8.30321 12.3372 8.29984 12.3291 8.29984 12.3206V12.2139Z" fill="#FFFF00"/>
<path d="M8.13984 12.2993C8.13984 12.2673 8.18784 12.2673 8.18784 12.2993V12.3846H8.13984V12.2993Z" fill="black"/>
<path d="M7.85717 12.4166C7.85717 12.3846 7.89984 12.3846 7.89984 12.4166V12.4806H7.85717V12.4166Z" fill="black"/>
<path d="M8.42251 12.4166C8.42251 12.3846 8.46517 12.3846 8.46517 12.4166V12.4806H8.42251V12.4166Z" fill="black"/>
<path d="M8.90501 15.6089C8.70062 15.3984 8.79799 15.2019 8.79799 15.2019C8.80175 15.1982 9.01257 15.0918 9.22071 15.2985L8.90879 15.6126" fill="#FFFF00"/>
<path d="M8.52368 15.4857L8.73579 15.749L8.89363 15.59C8.69684 15.3946 8.81689 15.2132 8.81689 15.2132C8.82064 15.2094 9.00884 15.1031 9.19803 15.2835L9.35587 15.1246L9.0836 14.9143L8.51989 15.482L8.52368 15.4857ZM8.7283 15.7641L9.36717 15.1208C9.37844 15.1094 9.40107 15.1093 9.41621 15.1244C9.43513 15.1431 9.43521 15.1658 9.42393 15.1771L8.78506 15.8205C8.77379 15.8318 8.75116 15.8319 8.73224 15.8131C8.7171 15.7981 8.71702 15.7755 8.73206 15.7603L8.7283 15.7641Z" fill="#FFFF00"/>
<path d="M8.95751 15.5257C8.83263 15.4017 8.885 15.2808 8.885 15.2808C8.885 15.2808 9.00928 15.2314 9.13038 15.3516L8.95751 15.5257ZM8.39895 15.407L9.01151 14.7901C9.02279 14.7788 9.0492 14.7825 9.06434 14.7975C9.07569 14.8088 9.07577 14.8314 9.0645 14.8427L8.45193 15.4596C8.44066 15.4709 8.41803 15.471 8.40289 15.456C8.39154 15.4447 8.39146 15.4221 8.40274 15.4107L8.39895 15.407ZM9.04949 14.8654C9.06077 14.8541 9.08339 14.854 9.09853 14.869C9.11367 14.884 9.11375 14.9067 9.10247 14.918L8.51997 15.5046C8.50494 15.5197 8.48607 15.516 8.47093 15.501C8.4558 15.486 8.45196 15.4671 8.46699 15.452L9.04949 14.8654ZM8.25751 14.8606L8.3026 14.8152L8.33288 14.8453L8.3667 14.8112L8.33643 14.7812L8.38528 14.732L8.41934 14.7658L8.45316 14.7317L8.41532 14.6942L8.46042 14.6487L8.5361 14.7239C8.55124 14.7389 8.55129 14.754 8.54002 14.7654L8.37467 14.9319C8.36339 14.9432 8.34455 14.9471 8.3332 14.9358L8.25751 14.8606ZM8.53256 14.788L8.78603 15.0172L8.62443 15.1799L8.38972 14.9243L8.52877 14.7843" fill="#FFFF00"/>
<path d="M8.45067 15.0976L8.57934 15.2253L8.42902 15.3767L8.30035 15.2489L8.45067 15.0976Z" fill="#FFFF00"/>
<path d="M8.84902 14.6964L8.97769 14.8242L8.82737 14.9756L8.6987 14.8478L8.84902 14.6964Z" fill="#FFFF00"/>
<path d="M8.17565 15.1777L8.22074 15.1323L8.25859 15.1699L8.29241 15.1358L8.25457 15.0982L8.29966 15.0528L8.33751 15.0904L8.37133 15.0563L8.33349 15.0188L8.37858 14.9734L8.45427 15.0485C8.46941 15.0635 8.46946 15.0786 8.45819 15.09L8.29659 15.2527C8.29061 15.2587 8.28248 15.2621 8.27399 15.2622C8.26551 15.2622 8.25736 15.2589 8.25133 15.2529L8.17565 15.1777Z" fill="#FFFF00"/>
<path d="M8.574 14.7766L8.6191 14.7312L8.65694 14.7687L8.69076 14.7347L8.65292 14.6971L8.69802 14.6517L8.73586 14.6893L8.76968 14.6552L8.73184 14.6176L8.77694 14.5722L8.85262 14.6474C8.86776 14.6624 8.86781 14.6775 8.85654 14.6888L8.69494 14.8516C8.68896 14.8576 8.68084 14.861 8.67235 14.861C8.66386 14.8611 8.65571 14.8577 8.64969 14.8517L8.574 14.7766Z" fill="#FFFF00"/>
<path d="M8.52181 14.9502C8.4991 14.9277 8.53293 14.8936 8.55563 14.9162L8.61618 14.9763L8.58236 15.0104L8.52181 14.9502Z" fill="black"/>
<path d="M8.40589 15.2335C8.38318 15.2109 8.41325 15.1807 8.43595 15.2032L8.48137 15.2483L8.4513 15.2786L8.40589 15.2335Z" fill="black"/>
<path d="M8.80424 14.8323C8.78154 14.8098 8.8116 14.7795 8.83431 14.8021L8.87972 14.8472L8.84966 14.8774L8.80424 14.8323Z" fill="black"/>
<path d="M10.3798 10.5659C10.3852 10.2726 10.5932 10.2033 10.5932 10.2033C10.5985 10.2033 10.8225 10.2779 10.8225 10.5713H10.3798" fill="#FFFF00"/>
<path d="M10.1985 10.2086L10.1612 10.5446H10.3852C10.3852 10.2673 10.5985 10.2246 10.5985 10.2246C10.6038 10.2246 10.8118 10.2833 10.8172 10.5446H11.0412L10.9985 10.2033H10.1985V10.2086ZM10.1452 10.5499H11.0518C11.0678 10.5499 11.0838 10.5659 11.0838 10.5873C11.0838 10.6139 11.0678 10.6299 11.0518 10.6299H10.1452C10.1292 10.6299 10.1132 10.6139 10.1132 10.5873C10.1132 10.5659 10.1292 10.5499 10.1505 10.5499H10.1452Z" fill="#FFFF00"/>
<path d="M10.4758 10.5446C10.4758 10.3686 10.5985 10.3206 10.5985 10.3206C10.5985 10.3206 10.7212 10.3739 10.7212 10.5446H10.4758ZM10.1665 10.0646H11.0358C11.0518 10.0646 11.0678 10.0859 11.0678 10.1073C11.0678 10.1233 11.0518 10.1393 11.0358 10.1393H10.1665C10.1505 10.1393 10.1345 10.1233 10.1345 10.1019C10.1345 10.0859 10.1505 10.0699 10.1665 10.0699V10.0646ZM11.0092 10.1446C11.0252 10.1446 11.0412 10.1606 11.0412 10.1819C11.0412 10.2033 11.0252 10.2193 11.0092 10.2193H10.1825C10.1612 10.2193 10.1505 10.2033 10.1505 10.1819C10.1505 10.1606 10.1612 10.1446 10.1825 10.1446H11.0092ZM10.4545 9.57926H10.5185V9.62193H10.5665V9.57926H10.6358V9.62726H10.6838V9.57393H10.7478V9.6806C10.7478 9.70193 10.7372 9.7126 10.7212 9.7126H10.4865C10.4705 9.7126 10.4545 9.70193 10.4545 9.68593V9.57926ZM10.6998 9.72326L10.7158 10.0646H10.4865L10.5025 9.71793H10.6998" fill="#FFFF00"/>
<path d="M10.4225 9.88326V10.0646H10.2092V9.88326H10.4225Z" fill="#FFFF00"/>
<path d="M10.9878 9.88326V10.0646H10.7745V9.88326H10.9878Z" fill="#FFFF00"/>
<path d="M10.1718 9.7446H10.2358V9.79793H10.2838V9.7446H10.3478V9.79793H10.3958V9.7446H10.4598V9.85126C10.4598 9.8726 10.4492 9.88326 10.4332 9.88326H10.2038C10.1954 9.88326 10.1872 9.87989 10.1812 9.87389C10.1752 9.86789 10.1718 9.85975 10.1718 9.85126V9.7446Z" fill="#FFFF00"/>
<path d="M10.7372 9.7446H10.8012V9.79793H10.8492V9.7446H10.9132V9.79793H10.9612V9.7446H11.0252V9.85126C11.0252 9.8726 11.0145 9.88326 10.9985 9.88326H10.7692C10.7607 9.88326 10.7526 9.87989 10.7465 9.87389C10.7405 9.86789 10.7372 9.85975 10.7372 9.85126V9.7446Z" fill="#FFFF00"/>
<path d="M10.5772 9.82993C10.5772 9.79793 10.6252 9.79793 10.6252 9.82993V9.91527H10.5772V9.82993Z" fill="black"/>
<path d="M10.2945 9.94727C10.2945 9.91527 10.3372 9.91527 10.3372 9.94727V10.0113H10.2945V9.94727Z" fill="black"/>
<path d="M10.8598 9.94727C10.8598 9.91527 10.9025 9.91527 10.9025 9.94727V10.0113H10.8598V9.94727Z" fill="black"/>
<path d="M13.2438 10.5659C13.2385 10.2726 13.0305 10.2033 13.0305 10.2033C13.0252 10.2033 12.8012 10.2779 12.8012 10.5713H13.2438" fill="#FFFF00"/>
<path d="M13.4252 10.2086L13.4625 10.5446H13.2385C13.2385 10.2673 13.0252 10.2246 13.0252 10.2246C13.0198 10.2246 12.8118 10.2833 12.8065 10.5446H12.5825L12.6252 10.2033H13.4252V10.2086ZM13.4785 10.5499H12.5718C12.5558 10.5499 12.5398 10.5659 12.5398 10.5873C12.5398 10.6139 12.5558 10.6299 12.5718 10.6299H13.4785C13.4945 10.6299 13.5105 10.6139 13.5105 10.5873C13.5105 10.5659 13.4945 10.5499 13.4732 10.5499H13.4785Z" fill="#FFFF00"/>
<path d="M13.1478 10.5446C13.1478 10.3686 13.0252 10.3206 13.0252 10.3206C13.0252 10.3206 12.9025 10.3739 12.9025 10.5446H13.1478ZM13.4572 10.0646H12.5878C12.5718 10.0646 12.5558 10.0859 12.5558 10.1073C12.5558 10.1233 12.5718 10.1393 12.5878 10.1393H13.4572C13.4732 10.1393 13.4892 10.1233 13.4892 10.1019C13.4892 10.0859 13.4732 10.0699 13.4572 10.0699V10.0646ZM12.6145 10.1446C12.5985 10.1446 12.5825 10.1606 12.5825 10.1819C12.5825 10.2033 12.5985 10.2193 12.6145 10.2193H13.4412C13.4625 10.2193 13.4732 10.2033 13.4732 10.1819C13.4732 10.1606 13.4625 10.1446 13.4412 10.1446H12.6145ZM13.1692 9.57926H13.1052V9.62193H13.0572V9.57926H12.9878V9.62726H12.9398V9.57393H12.8758V9.6806C12.8758 9.70193 12.8865 9.7126 12.9025 9.7126H13.1372C13.1532 9.7126 13.1692 9.70193 13.1692 9.68593V9.57926ZM12.9238 9.72326L12.9078 10.0646H13.1372L13.1212 9.71793H12.9238" fill="#FFFF00"/>
<path d="M13.2012 9.88326V10.0646H13.4145V9.88326H13.2012Z" fill="#FFFF00"/>
<path d="M12.6358 9.88326V10.0646H12.8492V9.88326H12.6358Z" fill="#FFFF00"/>
<path d="M13.4518 9.7446H13.3878V9.79793H13.3398V9.7446H13.2758V9.79793H13.2278V9.7446H13.1638V9.85126C13.1638 9.8726 13.1745 9.88326 13.1905 9.88326H13.4198C13.4283 9.88326 13.4365 9.87989 13.4425 9.87389C13.4485 9.86789 13.4518 9.85975 13.4518 9.85126V9.7446Z" fill="#FFFF00"/>
<path d="M12.8865 9.7446H12.8225V9.79793H12.7745V9.7446H12.7105V9.79793H12.6625V9.7446H12.5985V9.85126C12.5985 9.8726 12.6092 9.88326 12.6252 9.88326H12.8545C12.863 9.88326 12.8711 9.87989 12.8771 9.87389C12.8831 9.86789 12.8865 9.85975 12.8865 9.85126V9.7446Z" fill="#FFFF00"/>
<path d="M13.0465 9.82993C13.0465 9.79793 12.9985 9.79793 12.9985 9.82993V9.91527H13.0465V9.82993Z" fill="black"/>
<path d="M13.3292 9.94727C13.3292 9.91527 13.2865 9.91527 13.2865 9.94727V10.0113H13.3292V9.94727Z" fill="black"/>
<path d="M12.7638 9.94727C12.7638 9.91527 12.7212 9.91527 12.7212 9.94727V10.0113H12.7638V9.94727Z" fill="black"/>
<path d="M13.2438 13.0353C13.2385 12.7419 13.0305 12.6726 13.0305 12.6726C13.0252 12.6726 12.8012 12.7473 12.8012 13.0406H13.2438" fill="#FFFF00"/>
<path d="M13.4252 12.6779L13.4625 13.0139H13.2385C13.2385 12.7366 13.0252 12.6939 13.0252 12.6939C13.0198 12.6939 12.8118 12.7526 12.8065 13.0139H12.5825L12.6252 12.6726H13.4252V12.6779ZM13.4785 13.0193H12.5718C12.5558 13.0193 12.5398 13.0353 12.5398 13.0566C12.5398 13.0833 12.5558 13.0993 12.5718 13.0993H13.4785C13.4945 13.0993 13.5105 13.0833 13.5105 13.0566C13.5105 13.0353 13.4945 13.0193 13.4732 13.0193H13.4785Z" fill="#FFFF00"/>
<path d="M13.1478 13.0139C13.1478 12.8379 13.0252 12.7899 13.0252 12.7899C13.0252 12.7899 12.9025 12.8433 12.9025 13.0139H13.1478ZM13.4572 12.5339H12.5878C12.5718 12.5339 12.5558 12.5553 12.5558 12.5766C12.5558 12.5926 12.5718 12.6086 12.5878 12.6086H13.4572C13.4732 12.6086 13.4892 12.5926 13.4892 12.5713C13.4892 12.5553 13.4732 12.5393 13.4572 12.5393V12.5339ZM12.6145 12.6139C12.5985 12.6139 12.5825 12.6299 12.5825 12.6513C12.5825 12.6726 12.5985 12.6886 12.6145 12.6886H13.4412C13.4625 12.6886 13.4732 12.6726 13.4732 12.6513C13.4732 12.6299 13.4625 12.6139 13.4412 12.6139H12.6145ZM13.1692 12.0486H13.1052V12.0913H13.0572V12.0486H12.9878V12.0966H12.9398V12.0433H12.8758V12.1499C12.8758 12.1713 12.8865 12.1819 12.9025 12.1819H13.1372C13.1532 12.1819 13.1692 12.1713 13.1692 12.1553V12.0486ZM12.9238 12.1926L12.9078 12.5339H13.1372L13.1212 12.1873H12.9238" fill="#FFFF00"/>
<path d="M13.2012 12.3526V12.5339H13.4145V12.3526H13.2012Z" fill="#FFFF00"/>
<path d="M12.6358 12.3526V12.5339H12.8492V12.3526H12.6358Z" fill="#FFFF00"/>
<path d="M13.4518 12.2139H13.3878V12.2673H13.3398V12.2139H13.2758V12.2673H13.2278V12.2139H13.1638V12.3206C13.1638 12.3419 13.1745 12.3526 13.1905 12.3526H13.4198C13.4283 12.3526 13.4365 12.3492 13.4425 12.3432C13.4485 12.3372 13.4518 12.3291 13.4518 12.3206V12.2139Z" fill="#FFFF00"/>
<path d="M12.8865 12.2139H12.8225V12.2673H12.7745V12.2139H12.7105V12.2673H12.6625V12.2139H12.5985V12.3206C12.5985 12.3419 12.6092 12.3526 12.6252 12.3526H12.8545C12.863 12.3526 12.8711 12.3492 12.8771 12.3432C12.8831 12.3372 12.8865 12.3291 12.8865 12.3206V12.2139Z" fill="#FFFF00"/>
<path d="M13.0465 12.2993C13.0465 12.2673 12.9985 12.2673 12.9985 12.2993V12.3846H13.0465V12.2993Z" fill="black"/>
<path d="M13.3292 12.4166C13.3292 12.3846 13.2865 12.3846 13.2865 12.4166V12.4806H13.3292V12.4166Z" fill="black"/>
<path d="M12.7638 12.4166C12.7638 12.3846 12.7212 12.3846 12.7212 12.4166V12.4806H12.7638V12.4166Z" fill="black"/>
<path d="M12.2814 15.6089C12.4857 15.3984 12.3884 15.2019 12.3884 15.2019C12.3846 15.1982 12.1738 15.0918 11.9656 15.2985L12.2776 15.6126" fill="#FFFF00"/>
<path d="M12.6627 15.4857L12.4506 15.749L12.2927 15.59C12.4895 15.3946 12.3695 15.2132 12.3695 15.2132C12.3657 15.2094 12.1775 15.1031 11.9883 15.2835L11.8305 15.1246L12.1028 14.9143L12.6665 15.482L12.6627 15.4857ZM12.4581 15.7641L11.8192 15.1208C11.8079 15.1094 11.7853 15.1093 11.7701 15.1244C11.7512 15.1431 11.7511 15.1658 11.7624 15.1771L12.4013 15.8205C12.4126 15.8318 12.4352 15.8319 12.4541 15.8131C12.4693 15.7981 12.4693 15.7755 12.4543 15.7603L12.4581 15.7641Z" fill="#FFFF00"/>
<path d="M12.2288 15.5257C12.3537 15.4017 12.3014 15.2808 12.3014 15.2808C12.3014 15.2808 12.1771 15.2314 12.056 15.3516L12.2288 15.5257ZM12.7874 15.407L12.1748 14.7901C12.1636 14.7788 12.1372 14.7824 12.122 14.7975C12.1107 14.8088 12.1106 14.8314 12.1219 14.8427L12.7344 15.4596C12.7457 15.4709 12.7683 15.471 12.7835 15.456C12.7948 15.4447 12.7949 15.4221 12.7836 15.4107L12.7874 15.407ZM12.1369 14.8654C12.1256 14.8541 12.103 14.854 12.0878 14.869C12.0727 14.884 12.0726 14.9067 12.0839 14.918L12.6664 15.5046C12.6814 15.5197 12.7003 15.516 12.7154 15.501C12.7306 15.486 12.7344 15.4671 12.7194 15.452L12.1369 14.8654ZM12.9288 14.8606L12.8838 14.8152L12.8535 14.8453L12.8197 14.8112L12.8499 14.7812L12.8011 14.732L12.767 14.7658L12.7332 14.7317L12.771 14.6942L12.7259 14.6487L12.6503 14.7239C12.6351 14.7389 12.6351 14.754 12.6463 14.7654L12.8117 14.9319C12.823 14.9432 12.8418 14.9471 12.8532 14.9358L12.9288 14.8606ZM12.6538 14.788L12.4003 15.0172L12.5619 15.1799L12.7966 14.9243L12.6576 14.7843" fill="#FFFF00"/>
<path d="M12.7357 15.0976L12.607 15.2253L12.7573 15.3767L12.886 15.2489L12.7357 15.0976Z" fill="#FFFF00"/>
<path d="M12.3373 14.6964L12.2087 14.8242L12.359 14.9756L12.4877 14.8478L12.3373 14.6964Z" fill="#FFFF00"/>
<path d="M13.0107 15.1777L12.9656 15.1323L12.9278 15.1699L12.8939 15.1358L12.9318 15.0982L12.8867 15.0528L12.8489 15.0904L12.815 15.0563L12.8529 15.0188L12.8078 14.9734L12.7321 15.0485C12.7169 15.0635 12.7169 15.0786 12.7282 15.09L12.8898 15.2527C12.8957 15.2587 12.9039 15.2621 12.9124 15.2622C12.9208 15.2622 12.929 15.2589 12.935 15.2529L13.0107 15.1777Z" fill="#FFFF00"/>
<path d="M12.6124 14.7766L12.5673 14.7312L12.5294 14.7687L12.4956 14.7347L12.5334 14.6971L12.4883 14.6517L12.4505 14.6893L12.4167 14.6552L12.4545 14.6176L12.4094 14.5722L12.3337 14.6474C12.3186 14.6624 12.3185 14.6775 12.3298 14.6888L12.4914 14.8516C12.4974 14.8576 12.5055 14.861 12.514 14.861C12.5225 14.8611 12.5306 14.8577 12.5367 14.8517L12.6124 14.7766Z" fill="#FFFF00"/>
<path d="M12.6645 14.9502C12.6873 14.9277 12.6534 14.8936 12.6307 14.9162L12.5702 14.9763L12.604 15.0104L12.6645 14.9502Z" fill="black"/>
<path d="M12.7805 15.2335C12.8032 15.2109 12.7731 15.1807 12.7504 15.2032L12.705 15.2483L12.7351 15.2786L12.7805 15.2335Z" fill="black"/>
<path d="M12.3821 14.8323C12.4048 14.8098 12.3748 14.7795 12.352 14.8021L12.3066 14.8472L12.3367 14.8774L12.3821 14.8323Z" fill="black"/>
<path d="M10.2038 13.1259C10.2029 13.2385 10.2448 13.3472 10.3212 13.4299C10.3568 13.4698 10.4003 13.5017 10.449 13.5238C10.4977 13.5458 10.5504 13.5574 10.6038 13.5579C10.7158 13.5579 10.8172 13.5046 10.8865 13.4299C10.9629 13.3472 11.0048 13.2385 11.0038 13.1259V12.5499H10.2038V13.1259Z" fill="#003399"/>
<path d="M10.3905 12.8486C10.4347 12.8486 10.4705 12.8128 10.4705 12.7686C10.4705 12.7244 10.4347 12.6886 10.3905 12.6886C10.3463 12.6886 10.3105 12.7244 10.3105 12.7686C10.3105 12.8128 10.3463 12.8486 10.3905 12.8486Z" fill="white"/>
<path d="M10.8332 12.8486C10.8774 12.8486 10.9132 12.8128 10.9132 12.7686C10.9132 12.7244 10.8774 12.6886 10.8332 12.6886C10.789 12.6886 10.7532 12.7244 10.7532 12.7686C10.7532 12.8128 10.789 12.8486 10.8332 12.8486Z" fill="white"/>
<path d="M10.6092 13.0619C10.6534 13.0619 10.6892 13.0261 10.6892 12.9819C10.6892 12.9378 10.6534 12.9019 10.6092 12.9019C10.565 12.9019 10.5292 12.9378 10.5292 12.9819C10.5292 13.0261 10.565 13.0619 10.6092 13.0619Z" fill="white"/>
<path d="M10.3905 13.2859C10.4347 13.2859 10.4705 13.2501 10.4705 13.2059C10.4705 13.1618 10.4347 13.1259 10.3905 13.1259C10.3463 13.1259 10.3105 13.1618 10.3105 13.2059C10.3105 13.2501 10.3463 13.2859 10.3905 13.2859Z" fill="white"/>
<path d="M10.8332 13.2859C10.8774 13.2859 10.9132 13.2501 10.9132 13.2059C10.9132 13.1618 10.8774 13.1259 10.8332 13.1259C10.789 13.1259 10.7532 13.1618 10.7532 13.2059C10.7532 13.2501 10.789 13.2859 10.8332 13.2859Z" fill="white"/>
<path d="M10.2038 11.7393C10.2029 11.8518 10.2448 11.9605 10.3212 12.0433C10.3568 12.0831 10.4003 12.1151 10.449 12.1371C10.4977 12.1591 10.5504 12.1708 10.6038 12.1713C10.7158 12.1713 10.8172 12.1179 10.8865 12.0433C10.9629 11.9605 11.0048 11.8518 11.0038 11.7393V11.1633H10.2038V11.7393Z" fill="#003399"/>
<path d="M10.3905 11.4619C10.4347 11.4619 10.4705 11.4261 10.4705 11.3819C10.4705 11.3378 10.4347 11.3019 10.3905 11.3019C10.3463 11.3019 10.3105 11.3378 10.3105 11.3819C10.3105 11.4261 10.3463 11.4619 10.3905 11.4619Z" fill="white"/>
<path d="M10.8332 11.4619C10.8774 11.4619 10.9132 11.4261 10.9132 11.3819C10.9132 11.3378 10.8774 11.3019 10.8332 11.3019C10.789 11.3019 10.7532 11.3378 10.7532 11.3819C10.7532 11.4261 10.789 11.4619 10.8332 11.4619Z" fill="white"/>
<path d="M10.6092 11.6753C10.6534 11.6753 10.6892 11.6395 10.6892 11.5953C10.6892 11.5511 10.6534 11.5153 10.6092 11.5153C10.565 11.5153 10.5292 11.5511 10.5292 11.5953C10.5292 11.6395 10.565 11.6753 10.6092 11.6753Z" fill="white"/>
<path d="M10.3905 11.8993C10.4347 11.8993 10.4705 11.8635 10.4705 11.8193C10.4705 11.7751 10.4347 11.7393 10.3905 11.7393C10.3463 11.7393 10.3105 11.7751 10.3105 11.8193C10.3105 11.8635 10.3463 11.8993 10.3905 11.8993Z" fill="white"/>
<path d="M10.8332 11.8993C10.8774 11.8993 10.9132 11.8635 10.9132 11.8193C10.9132 11.7751 10.8774 11.7393 10.8332 11.7393C10.789 11.7393 10.7532 11.7751 10.7532 11.8193C10.7532 11.8635 10.789 11.8993 10.8332 11.8993Z" fill="white"/>
<path d="M9.09451 13.1259C9.09354 13.2385 9.1355 13.3472 9.21184 13.4299C9.24746 13.4698 9.291 13.5017 9.33967 13.5238C9.38834 13.5458 9.44108 13.5574 9.49451 13.5579C9.60651 13.5579 9.70784 13.5046 9.77718 13.4299C9.85352 13.3472 9.89548 13.2385 9.89451 13.1259V12.5499H9.09451V13.1259Z" fill="#003399"/>
<path d="M9.28118 12.8486C9.32536 12.8486 9.36118 12.8128 9.36118 12.7686C9.36118 12.7244 9.32536 12.6886 9.28118 12.6886C9.23699 12.6886 9.20118 12.7244 9.20118 12.7686C9.20118 12.8128 9.23699 12.8486 9.28118 12.8486Z" fill="white"/>
<path d="M9.72384 12.8486C9.76803 12.8486 9.80384 12.8128 9.80384 12.7686C9.80384 12.7244 9.76803 12.6886 9.72384 12.6886C9.67966 12.6886 9.64384 12.7244 9.64384 12.7686C9.64384 12.8128 9.67966 12.8486 9.72384 12.8486Z" fill="white"/>
<path d="M9.49984 13.0619C9.54403 13.0619 9.57984 13.0261 9.57984 12.9819C9.57984 12.9378 9.54403 12.9019 9.49984 12.9019C9.45566 12.9019 9.41984 12.9378 9.41984 12.9819C9.41984 13.0261 9.45566 13.0619 9.49984 13.0619Z" fill="white"/>
<path d="M9.28118 13.2859C9.32536 13.2859 9.36118 13.2501 9.36118 13.2059C9.36118 13.1618 9.32536 13.1259 9.28118 13.1259C9.23699 13.1259 9.20118 13.1618 9.20118 13.2059C9.20118 13.2501 9.23699 13.2859 9.28118 13.2859Z" fill="white"/>
<path d="M9.72384 13.2859C9.76803 13.2859 9.80384 13.2501 9.80384 13.2059C9.80384 13.1618 9.76803 13.1259 9.72384 13.1259C9.67966 13.1259 9.64384 13.1618 9.64384 13.2059C9.64384 13.2501 9.67966 13.2859 9.72384 13.2859Z" fill="white"/>
<path d="M11.3132 13.1259C11.3122 13.2385 11.3542 13.3472 11.4305 13.4299C11.4661 13.4698 11.5097 13.5017 11.5583 13.5238C11.607 13.5458 11.6598 13.5574 11.7132 13.5579C11.8252 13.5579 11.9265 13.5046 11.9958 13.4299C12.0722 13.3472 12.1141 13.2385 12.1132 13.1259V12.5499H11.3132V13.1259Z" fill="#003399"/>
<path d="M11.4998 12.8486C11.544 12.8486 11.5798 12.8128 11.5798 12.7686C11.5798 12.7244 11.544 12.6886 11.4998 12.6886C11.4557 12.6886 11.4198 12.7244 11.4198 12.7686C11.4198 12.8128 11.4557 12.8486 11.4998 12.8486Z" fill="white"/>
<path d="M11.9425 12.8486C11.9867 12.8486 12.0225 12.8128 12.0225 12.7686C12.0225 12.7244 11.9867 12.6886 11.9425 12.6886C11.8983 12.6886 11.8625 12.7244 11.8625 12.7686C11.8625 12.8128 11.8983 12.8486 11.9425 12.8486Z" fill="white"/>
<path d="M11.7185 13.0619C11.7627 13.0619 11.7985 13.0261 11.7985 12.9819C11.7985 12.9378 11.7627 12.9019 11.7185 12.9019C11.6743 12.9019 11.6385 12.9378 11.6385 12.9819C11.6385 13.0261 11.6743 13.0619 11.7185 13.0619Z" fill="white"/>
<path d="M11.4998 13.2859C11.544 13.2859 11.5798 13.2501 11.5798 13.2059C11.5798 13.1618 11.544 13.1259 11.4998 13.1259C11.4557 13.1259 11.4198 13.1618 11.4198 13.2059C11.4198 13.2501 11.4557 13.2859 11.4998 13.2859Z" fill="white"/>
<path d="M11.9425 13.2859C11.9867 13.2859 12.0225 13.2501 12.0225 13.2059C12.0225 13.1618 11.9867 13.1259 11.9425 13.1259C11.8983 13.1259 11.8625 13.1618 11.8625 13.2059C11.8625 13.2501 11.8983 13.2859 11.9425 13.2859Z" fill="white"/>
<path d="M10.2038 14.5019C10.2029 14.6145 10.2448 14.7232 10.3212 14.8059C10.3568 14.8458 10.4003 14.8777 10.449 14.8998C10.4977 14.9218 10.5504 14.9334 10.6038 14.9339C10.7158 14.9339 10.8172 14.8806 10.8865 14.8059C10.9629 14.7232 11.0048 14.6145 11.0038 14.5019V13.9259H10.2038V14.5019Z" fill="#003399"/>
<path d="M10.3905 14.2246C10.4347 14.2246 10.4705 14.1888 10.4705 14.1446C10.4705 14.1004 10.4347 14.0646 10.3905 14.0646C10.3463 14.0646 10.3105 14.1004 10.3105 14.1446C10.3105 14.1888 10.3463 14.2246 10.3905 14.2246Z" fill="white"/>
<path d="M10.8332 14.2246C10.8774 14.2246 10.9132 14.1888 10.9132 14.1446C10.9132 14.1004 10.8774 14.0646 10.8332 14.0646C10.789 14.0646 10.7532 14.1004 10.7532 14.1446C10.7532 14.1888 10.789 14.2246 10.8332 14.2246Z" fill="white"/>
<path d="M10.6092 14.4379C10.6534 14.4379 10.6892 14.4021 10.6892 14.3579C10.6892 14.3138 10.6534 14.2779 10.6092 14.2779C10.565 14.2779 10.5292 14.3138 10.5292 14.3579C10.5292 14.4021 10.565 14.4379 10.6092 14.4379Z" fill="white"/>
<path d="M10.3905 14.6619C10.4347 14.6619 10.4705 14.6261 10.4705 14.5819C10.4705 14.5378 10.4347 14.5019 10.3905 14.5019C10.3463 14.5019 10.3105 14.5378 10.3105 14.5819C10.3105 14.6261 10.3463 14.6619 10.3905 14.6619Z" fill="white"/>
<path d="M10.8332 14.6619C10.8774 14.6619 10.9132 14.6261 10.9132 14.5819C10.9132 14.5378 10.8774 14.5019 10.8332 14.5019C10.789 14.5019 10.7532 14.5378 10.7532 14.5819C10.7532 14.6261 10.789 14.6619 10.8332 14.6619Z" fill="white"/>
</g>
<rect x="0.5" y="0.5" width="25" height="25" rx="12.5" stroke="#B4B4BF"/>
<defs>
<clipPath id="clip0_919_19109">
<rect x="1" y="1" width="24" height="24" rx="12" fill="white"/>
</clipPath>
</defs>
</svg>
